<svg xmlns:xlink="http://www.w3.org/1999/xlink" xmlns="http://www.w3.org/2000/svg" version="1.1" viewBox="0 0 1024 1024" height="1024px" width="1024px">
    <title>商品</title>
    <g fill-rule="evenodd" fill="none" stroke-width="1" stroke="none" id="商品">
        <g>
            <rect height="1024" width="1024" y="0" x="0" opacity="0" id="矩形"></rect>
            <g fill-rule="nonzero" fill="#F7F7F7" transform="translate(64, 64)" id="辅助线3">
                <rect height="4" width="896" y="638" x="0" id="矩形"></rect>
                <rect height="4" width="896" y="254" x="0" id="矩形"></rect>
                <polygon points="5.97750103e-14 446 896 446 896 450 5.97750103e-14 450" transform="translate(448, 448) rotate(90) translate(-448, -448)" id="矩形"></polygon>
            </g>
            <path fill-rule="nonzero" fill="#A199FF" id="形状" d="M148.351293,732.138264 C149.245576,730.562879 151.247637,730.010736 152.823021,730.905018 C154.398406,731.799301 154.950549,733.801361 154.056267,735.376746 L152.976773,737.278404 C152.08249,738.853789 150.080429,739.405932 148.505044,738.511649 C146.92966,737.617367 146.377517,735.615306 147.271799,734.039921 L148.351293,732.138264 Z M877.525032,729.427748 C879.100417,728.533465 881.102478,729.085608 881.996761,730.660993 L883.076255,732.562651 C883.970537,734.138036 883.418394,736.140097 881.84301,737.034379 C880.267625,737.928661 878.265564,737.376519 877.371281,735.801134 L876.291787,733.899476 C875.397505,732.324091 875.949648,730.32203 877.525032,729.427748 Z M159.146236,713.121685 C160.040518,711.546301 162.042579,710.994158 163.617964,711.88844 C165.193349,712.782722 165.745492,714.784783 164.851209,716.360168 L163.771715,718.261826 C162.877433,719.837211 160.875372,720.389354 159.299987,719.495071 C157.724602,718.600789 157.172459,716.598728 158.066742,715.023343 L159.146236,713.121685 Z M866.73009,710.41117 C868.305475,709.516887 870.307536,710.06903 871.201818,711.644415 L872.281312,713.546073 C873.175595,715.121458 872.623452,717.123519 871.048067,718.017801 C869.472682,718.912083 867.470621,718.35994 866.576339,716.784556 L865.496845,714.882898 C864.602562,713.307513 865.154705,711.305452 866.73009,710.41117 Z M169.941179,694.105107 C170.835461,692.529722 172.837522,691.97758 174.412907,692.871862 C175.988292,693.766144 176.540434,695.768205 175.646152,697.34359 L174.566658,699.245248 C173.672375,700.820633 171.670315,701.372776 170.09493,700.478493 C168.519545,699.584211 167.967402,697.58215 168.861684,696.006765 L169.941179,694.105107 Z M855.935147,691.394592 C857.510532,690.500309 859.512593,691.052452 860.406875,692.627837 L861.48637,694.529495 C862.380652,696.10488 861.828509,698.10694 860.253124,699.001223 C858.677739,699.895505 856.675678,699.343362 855.781396,697.767977 L854.701902,695.86632 C853.80762,694.290935 854.359762,692.288874 855.935147,691.394592 Z M180.736121,675.088529 C181.630404,673.513144 183.632464,672.961002 185.207849,673.855284 C186.783234,674.749566 187.335377,676.751627 186.441095,678.327012 L185.3616,680.22867 C184.467318,681.804055 182.465257,682.356198 180.889872,681.461915 C179.314487,680.567633 178.762345,678.565572 179.656627,676.990187 L180.736121,675.088529 Z M845.140205,672.378014 C846.71559,671.483731 848.71765,672.035874 849.611933,673.611259 L850.691427,675.512917 C851.585709,677.088302 851.033567,679.090362 849.458182,679.984645 C847.882797,680.878927 845.880736,680.326784 844.986454,678.751399 L843.906959,676.849742 C843.012677,675.274357 843.56482,673.272296 845.140205,672.378014 Z M191.531064,656.071951 C192.425346,654.496566 194.427407,653.944424 196.002792,654.838706 C197.578177,655.732988 198.13032,657.735049 197.236037,659.310434 L196.156543,661.212092 C195.262261,662.787477 193.2602,663.339619 191.684815,662.445337 C190.10943,661.551055 189.557287,659.548994 190.45157,657.973609 L191.531064,656.071951 Z M834.345262,653.361435 C835.920647,652.467153 837.922708,653.019296 838.81699,654.594681 L839.896484,656.496339 C840.790767,658.071723 840.238624,660.073784 838.663239,660.968067 C837.087854,661.862349 835.085793,661.310206 834.191511,659.734821 L833.112017,657.833164 C832.217734,656.257779 832.769877,654.255718 834.345262,653.361435 Z M202.326006,637.055373 C203.220289,635.479988 205.22235,634.927846 206.797735,635.822128 C208.373119,636.71641 208.925262,638.718471 208.03098,640.293856 L206.951486,642.195514 C206.057203,643.770899 204.055142,644.323041 202.479758,643.428759 C200.904373,642.534477 200.35223,640.532416 201.246512,638.957031 L202.326006,637.055373 Z M823.550319,634.344857 C825.125704,633.450575 827.127765,634.002718 828.022047,635.578103 L829.101542,637.47976 C829.995824,639.055145 829.443681,641.057206 827.868296,641.951489 C826.292912,642.845771 824.290851,642.293628 823.396568,640.718243 L822.317074,638.816585 C821.422792,637.241201 821.974934,635.23914 823.550319,634.344857 Z M213.120949,618.038795 C214.015231,616.46341 216.017292,615.911267 217.592677,616.80555 C219.168062,617.699832 219.720205,619.701893 218.825923,621.277278 L217.746428,623.178936 C216.852146,624.754321 214.850085,625.306463 213.2747,624.412181 C211.699315,623.517899 211.147173,621.515838 212.041455,619.940453 L213.120949,618.038795 Z M812.755377,615.328279 C814.330762,614.433997 816.332823,614.98614 817.227105,616.561525 L818.306599,618.463182 C819.200881,620.038567 818.648739,622.040628 817.073354,622.934911 C815.497969,623.829193 813.495908,623.27705 812.601626,621.701665 L811.522131,619.800007 C810.627849,618.224622 811.179992,616.222562 812.755377,615.328279 Z M223.915892,599.022217 C224.810174,597.446832 226.812235,596.894689 228.38762,597.788972 C229.963005,598.683254 230.515147,600.685315 229.620865,602.2607 L228.541371,604.162358 C227.647089,605.737743 225.645028,606.289885 224.069643,605.395603 C222.494258,604.501321 221.942115,602.49926 222.836397,600.923875 L223.915892,599.022217 Z M801.960434,596.311701 C803.535819,595.417419 805.53788,595.969562 806.432162,597.544947 L807.511657,599.446604 C808.405939,601.021989 807.853796,603.02405 806.278411,603.918332 C804.703026,604.812615 802.700965,604.260472 801.806683,602.685087 L800.727189,600.783429 C799.832906,599.208044 800.385049,597.205984 801.960434,596.311701 Z M234.710834,580.005639 C235.605117,578.430254 237.607178,577.878111 239.182562,578.772394 C240.757947,579.666676 241.31009,581.668737 240.415808,583.244122 L239.336313,585.14578 C238.442031,586.721164 236.43997,587.273307 234.864585,586.379025 C233.2892,585.484743 232.737058,583.482682 233.63134,581.907297 L234.710834,580.005639 Z M791.165492,577.295123 C792.740876,576.400841 794.742937,576.952984 795.63722,578.528368 L796.716714,580.430026 C797.610996,582.005411 797.058853,584.007472 795.483469,584.901754 C793.908084,585.796037 791.906023,585.243894 791.01174,583.668509 L789.932246,581.766851 C789.037964,580.191466 789.590107,578.189405 791.165492,577.295123 Z M245.505777,560.989061 C246.400059,559.413676 248.40212,558.861533 249.977505,559.755816 C251.55289,560.650098 252.105033,562.652159 251.21075,564.227544 L250.131256,566.129201 C249.236974,567.704586 247.234913,568.256729 245.659528,567.362447 C244.084143,566.468164 243.532,564.466104 244.426283,562.890719 L245.505777,560.989061 Z M780.370549,558.278545 C781.945934,557.384263 783.947995,557.936405 784.842277,559.51179 L785.921771,561.413448 C786.816054,562.988833 786.263911,564.990894 784.688526,565.885176 C783.113141,566.779459 781.11108,566.227316 780.216798,564.651931 L779.137304,562.750273 C778.243021,561.174888 778.795164,559.172827 780.370549,558.278545 Z M256.30072,541.972483 C257.195002,540.397098 259.197063,539.844955 260.772448,540.739237 C262.347833,541.63352 262.899975,543.635581 262.005693,545.210966 L260.926199,547.112623 C260.031916,548.688008 258.029856,549.240151 256.454471,548.345869 C254.879086,547.451586 254.326943,545.449525 255.221225,543.874141 L256.30072,541.972483 Z M769.575606,539.261967 C771.150991,538.367685 773.153052,538.919827 774.047334,540.495212 L775.126829,542.39687 C776.021111,543.972255 775.468968,545.974316 773.893583,546.868598 C772.318198,547.762881 770.316138,547.210738 769.421855,545.635353 L768.342361,543.733695 C767.448079,542.15831 768.000221,540.156249 769.575606,539.261967 Z M267.095662,522.955905 C267.989945,521.38052 269.992005,520.828377 271.56739,521.722659 C273.142775,522.616942 273.694918,524.619003 272.800636,526.194387 L271.721141,528.096045 C270.826859,529.67143 268.824798,530.223573 267.249413,529.329291 C265.674028,528.435008 265.121886,526.432947 266.016168,524.857563 L267.095662,522.955905 Z M758.780664,520.245389 C760.356049,519.351107 762.358109,519.903249 763.252392,521.478634 L764.331886,523.380292 C765.226168,524.955677 764.674026,526.957738 763.098641,527.85202 C761.523256,528.746302 759.521195,528.19416 758.626913,526.618775 L757.547418,524.717117 C756.653136,523.141732 757.205279,521.139671 758.780664,520.245389 Z M277.890605,503.939327 C278.784887,502.363942 280.786948,501.811799 282.362333,502.706081 C283.937718,503.600364 284.489861,505.602424 283.595578,507.177809 L282.516084,509.079467 C281.621802,510.654852 279.619741,511.206995 278.044356,510.312713 C276.468971,509.41843 275.916828,507.416369 276.811111,505.840984 L277.890605,503.939327 Z M747.985721,501.228811 C749.561106,500.334528 751.563167,500.886671 752.457449,502.462056 L753.536943,504.363714 C754.431226,505.939099 753.879083,507.94116 752.303698,508.835442 C750.728313,509.729724 748.726252,509.177582 747.83197,507.602197 L746.752476,505.700539 C745.858193,504.125154 746.410336,502.123093 747.985721,501.228811 Z M288.685547,484.922749 C289.57983,483.347364 291.581891,482.795221 293.157276,483.689503 C294.73266,484.583786 295.284803,486.585846 294.390521,488.161231 L293.311027,490.062889 C292.416744,491.638274 290.414683,492.190417 288.839298,491.296134 C287.263914,490.401852 286.711771,488.399791 287.606053,486.824406 L288.685547,484.922749 Z M737.190778,482.212233 C738.766163,481.31795 740.768224,481.870093 741.662507,483.445478 L742.742001,485.347136 C743.636283,486.922521 743.08414,488.924582 741.508755,489.818864 C739.933371,490.713146 737.93131,490.161004 737.037027,488.585619 L735.957533,486.683961 C735.063251,485.108576 735.615394,483.106515 737.190778,482.212233 Z M299.48049,465.90617 C300.374772,464.330786 302.376833,463.778643 303.952218,464.672925 C305.527603,465.567207 306.079746,467.569268 305.185463,469.144653 L304.105969,471.046311 C303.211687,472.621696 301.209626,473.173839 299.634241,472.279556 C298.058856,471.385274 297.506713,469.383213 298.400996,467.807828 L299.48049,465.90617 Z M726.395836,463.195655 C727.971221,462.301372 729.973282,462.853515 730.867564,464.4289 L731.947058,466.330558 C732.841341,467.905943 732.289198,469.908004 730.713813,470.802286 C729.138428,471.696568 727.136367,471.144425 726.242085,469.569041 L725.16259,467.667383 C724.268308,466.091998 724.820451,464.089937 726.395836,463.195655 Z M310.275433,446.889592 C311.169715,445.314207 313.171776,444.762065 314.747161,445.656347 C316.322546,446.550629 316.874688,448.55269 315.980406,450.128075 L314.900912,452.029733 C314.006629,453.605118 312.004569,454.157261 310.429184,453.262978 C308.853799,452.368696 308.301656,450.366635 309.195938,448.79125 L310.275433,446.889592 Z M715.600893,444.179077 C717.176278,443.284794 719.178339,443.836937 720.072621,445.412322 L721.152116,447.31398 C722.046398,448.889365 721.494255,450.891425 719.91887,451.785708 C718.343485,452.67999 716.341424,452.127847 715.447142,450.552463 L714.367648,448.650805 C713.473366,447.07542 714.025508,445.073359 715.600893,444.179077 Z M321.070375,427.873014 C321.964658,426.297629 323.966718,425.745487 325.542103,426.639769 C327.117488,427.534051 327.669631,429.536112 326.775349,431.111497 L325.695854,433.013155 C324.801572,434.58854 322.799511,435.140683 321.224126,434.2464 C319.648741,433.352118 319.096599,431.350057 319.990881,429.774672 L321.070375,427.873014 Z M704.805951,425.162499 C706.381335,424.268216 708.383396,424.820359 709.277679,426.395744 L710.357173,428.297402 C711.251455,429.872787 710.699313,431.874847 709.123928,432.76913 C707.548543,433.663412 705.546482,433.111269 704.6522,431.535884 L703.572705,429.634227 C702.678423,428.058842 703.230566,426.056781 704.805951,425.162499 Z M331.865318,408.856436 C332.7596,407.281051 334.761661,406.728909 336.337046,407.623191 C337.912431,408.517473 338.464574,410.519534 337.570291,412.094919 L336.490797,413.996577 C335.596515,415.571962 333.594454,416.124104 332.019069,415.229822 C330.443684,414.33554 329.891541,412.333479 330.785824,410.758094 L331.865318,408.856436 Z M694.011008,406.14592 C695.586393,405.251638 697.588454,405.803781 698.482736,407.379166 L699.56223,409.280824 C700.456513,410.856208 699.90437,412.858269 698.328985,413.752552 C696.7536,414.646834 694.751539,414.094691 693.857257,412.519306 L692.777763,410.617649 C691.88348,409.042264 692.435623,407.040203 694.011008,406.14592 Z M342.660261,389.839858 C343.554543,388.264473 345.556604,387.712331 347.131989,388.606613 C348.707374,389.500895 349.259516,391.502956 348.365234,393.078341 L347.28574,394.979999 C346.391457,396.555384 344.389396,397.107526 342.814012,396.213244 C341.238627,395.318962 340.686484,393.316901 341.580766,391.741516 L342.660261,389.839858 Z M683.216065,387.129342 C684.79145,386.23506 686.793511,386.787203 687.687793,388.362588 L688.767288,390.264245 C689.66157,391.83963 689.109427,393.841691 687.534042,394.735974 C685.958657,395.630256 683.956597,395.078113 683.062314,393.502728 L681.98282,391.60107 C681.088538,390.025686 681.64068,388.023625 683.216065,387.129342 Z M353.455203,370.82328 C354.349485,369.247895 356.351546,368.695752 357.926931,369.590035 C359.502316,370.484317 360.054459,372.486378 359.160177,374.061763 L358.080682,375.963421 C357.1864,377.538806 355.184339,378.090948 353.608954,377.196666 C352.033569,376.302384 351.481427,374.300323 352.375709,372.724938 L353.455203,370.82328 Z M672.421123,368.112764 C673.996508,367.218482 675.998568,367.770625 676.892851,369.34601 L677.972345,371.247667 C678.866627,372.823052 678.314485,374.825113 676.7391,375.719396 C675.163715,376.613678 673.161654,376.061535 672.267372,374.48615 L671.187877,372.584492 C670.293595,371.009107 670.845738,369.007047 672.421123,368.112764 Z M364.250146,351.806702 C365.144428,350.231317 367.146489,349.679174 368.721874,350.573457 C370.297259,351.467739 370.849401,353.4698 369.955119,355.045185 L368.875625,356.946843 C367.981343,358.522228 365.979282,359.07437 364.403897,358.180088 C362.828512,357.285806 362.276369,355.283745 363.170651,353.70836 L364.250146,351.806702 Z M661.62618,349.096186 C663.201565,348.201904 665.203626,348.754047 666.097908,350.329432 L667.177402,352.231089 C668.071685,353.806474 667.519542,355.808535 665.944157,356.702817 C664.368772,357.5971 662.366711,357.044957 661.472429,355.469572 L660.392935,353.567914 C659.498652,351.992529 660.050795,349.990469 661.62618,349.096186 Z M375.045088,332.790124 C375.939371,331.214739 377.941432,330.662596 379.516816,331.556879 C381.092201,332.451161 381.644344,334.453222 380.750062,336.028607 L379.670568,337.930265 C378.776285,339.505649 376.774224,340.057792 375.198839,339.16351 C373.623455,338.269228 373.071312,336.267167 373.965594,334.691782 L375.045088,332.790124 Z M650.831237,330.079608 C652.406622,329.185326 654.408683,329.737469 655.302966,331.312853 L656.38246,333.214511 C657.276742,334.789896 656.724599,336.791957 655.149215,337.686239 C653.57383,338.580522 651.571769,338.028379 650.677486,336.452994 L649.597992,334.551336 C648.70371,332.975951 649.255853,330.97389 650.831237,330.079608 Z M385.840031,313.773546 C386.734313,312.198161 388.736374,311.646018 390.311759,312.540301 C391.887144,313.434583 392.439287,315.436644 391.545004,317.012029 L390.46551,318.913686 C389.571228,320.489071 387.569167,321.041214 385.993782,320.146932 C384.418397,319.252649 383.866254,317.250589 384.760537,315.675204 L385.840031,313.773546 Z M640.036295,311.06303 C641.61168,310.168748 643.613741,310.72089 644.508023,312.296275 L645.587517,314.197933 C646.4818,315.773318 645.929657,317.775379 644.354272,318.669661 C642.778887,319.563944 640.776826,319.011801 639.882544,317.436416 L638.80305,315.534758 C637.908767,313.959373 638.46091,311.957312 640.036295,311.06303 Z M396.634974,294.756968 C397.529256,293.181583 399.531317,292.62944 401.106702,293.523722 C402.682087,294.418005 403.234229,296.420066 402.339947,297.995451 L401.260453,299.897108 C400.36617,301.472493 398.36411,302.024636 396.788725,301.130354 C395.21334,300.236071 394.661197,298.234011 395.555479,296.658626 L396.634974,294.756968 Z M629.241352,292.046452 C630.816737,291.15217 632.818798,291.704312 633.71308,293.279697 L634.792575,295.181355 C635.686857,296.75674 635.134714,298.758801 633.559329,299.653083 C631.983944,300.547366 629.981884,299.995223 629.087601,298.419838 L628.008107,296.51818 C627.113825,294.942795 627.665967,292.940734 629.241352,292.046452 Z M407.429916,275.74039 C408.324199,274.165005 410.326259,273.612862 411.901644,274.507144 C413.477029,275.401427 414.029172,277.403488 413.13489,278.978873 L412.055395,280.88053 C411.161113,282.455915 409.159052,283.008058 407.583667,282.113776 C406.008282,281.219493 405.45614,279.217432 406.350422,277.642048 L407.429916,275.74039 Z M618.44641,273.029874 C620.021795,272.135592 622.023855,272.687734 622.918138,274.263119 L623.997632,276.164777 C624.891914,277.740162 624.339772,279.742223 622.764387,280.636505 C621.189002,281.530787 619.186941,280.978645 618.292659,279.40326 L617.213164,277.501602 C616.318882,275.926217 616.871025,273.924156 618.44641,273.029874 Z M418.224859,256.723812 C419.119141,255.148427 421.121202,254.596284 422.696587,255.490566 C424.271972,256.384849 424.824115,258.38691 423.929832,259.962294 L422.850338,261.863952 C421.956056,263.439337 419.953995,263.99148 418.37861,263.097198 C416.803225,262.202915 416.251082,260.200854 417.145365,258.625469 L418.224859,256.723812 Z M607.651467,254.013296 C609.226852,253.119014 611.228913,253.671156 612.123195,255.246541 L613.202689,257.148199 C614.096972,258.723584 613.544829,260.725645 611.969444,261.619927 C610.394059,262.514209 608.391998,261.962067 607.497716,260.386682 L606.418222,258.485024 C605.523939,256.909639 606.076082,254.907578 607.651467,254.013296 Z M429.019801,237.707234 C429.914084,236.131849 431.916145,235.579706 433.49153,236.473988 C435.066914,237.368271 435.619057,239.370331 434.724775,240.945716 L433.645281,242.847374 C432.750998,244.422759 430.748937,244.974902 429.173553,244.080619 C427.598168,243.186337 427.046025,241.184276 427.940307,239.608891 L429.019801,237.707234 Z M596.856524,234.996718 C598.431909,234.102435 600.43397,234.654578 601.328252,236.229963 L602.407747,238.131621 C603.302029,239.707006 602.749886,241.709067 601.174501,242.603349 C599.599117,243.497631 597.597056,242.945489 596.702773,241.370104 L595.623279,239.468446 C594.728997,237.893061 595.281139,235.891 596.856524,234.996718 Z M439.814744,218.690655 C440.709026,217.115271 442.711087,216.563128 444.286472,217.45741 C445.861857,218.351692 446.414,220.353753 445.519717,221.929138 L444.440223,223.830796 C443.545941,225.406181 441.54388,225.958324 439.968495,225.064041 C438.39311,224.169759 437.840967,222.167698 438.73525,220.592313 L439.814744,218.690655 Z M586.061582,215.98014 C587.636967,215.085857 589.639028,215.638 590.53331,217.213385 L591.612804,219.115043 C592.507086,220.690428 591.954944,222.692489 590.379559,223.586771 C588.804174,224.481053 586.802113,223.928911 585.907831,222.353526 L584.828336,220.451868 C583.934054,218.876483 584.486197,216.874422 586.061582,215.98014 Z"></path>
            <g transform="translate(145.4961, 162.9398)" id="Configuration">
                <g transform="translate(0, 4.8896)" id="三角底色">
                    <polygon points="30.1511816 513.858593 708.26697 513.871998 736.914308 561.979161 0 561.965756" fill-rule="nonzero" fill="#160A45" id="矩形"></polygon>
                    <polygon points="108.241122 513.8854 622.113118 513.871995 646.166701 559.792472 84.1875397 561.979161" fill-rule="nonzero" fill="#DEDAFF" id="矩形"></polygon>
                    <polygon points="366.270465 0 227.415692 277.709546 506.218583 279.896236" fill="#BEB9FF" id="Fill"></polygon>
                </g>
                <path fill-rule="nonzero" fill="#6C57F0" id="辅助线1" d="M366.270465,0 L368.226299,3.91166881 L648.122535,563.70414 L649.704838,566.868747 L82.8360913,566.868747 L84.4183946,563.70414 L364.31463,3.91166881 L366.270465,0 Z M366.270465,9.77902338 L89.9122924,562.495368 L642.626451,562.495368 L366.270465,9.77902338 Z"></path>
                <g transform="translate(366.2705, 284.7858)" id="书3">
                    <rect height="264.58941" width="209.922177" y="0" x="0" fill="#DEDAFF" id="矩形"></rect>
                    <polygon points="137.863827 0 210.024575 0 137.761428 145.040633" transform="translate(173.893, 72.5203) scale(-1, 1) translate(-173.893, -72.5203)" fill-rule="nonzero" fill="#806EFF" id="矩形"></polygon>
                    <path fill-rule="nonzero" fill="#A199FF" id="形状结合" d="M21.8668934,282.082925 L21.8672997,282.056153 C9.69421017,281.458518 0,270.929941 0,258.029342 C0,245.128743 9.69421017,234.600167 21.8672997,234.002531 L209.922177,233.97576 L209.922177,282.082925 L21.8668934,282.082925 Z"></path>
                </g>
                <g transform="translate(156.3483, 284.7858)" id="书2">
                    <rect height="271.149478" width="209.922177" y="0" x="0" fill="#EEEEFF" id="矩形"></rect>
                    <polygon points="1.6087059e-13 0 72.1607483 0 0 144.845647" fill-rule="nonzero" fill="#806EFF" id="矩形"></polygon>
                    <path fill-rule="nonzero" fill="#A199FF" id="形状结合" d="M185.868594,233.97576 C186.231182,233.984749 186.595558,233.97576 186.961939,233.97576 C199.642528,233.97576 209.922177,244.744916 209.922177,258.029342 C209.922177,271.313769 199.642528,282.082925 186.961939,282.082925 C186.595558,282.082925 186.231182,282.073936 185.869,282.056153 L185.868594,282.082925 L0,282.082925 L0,233.97576 L185.868594,233.97576 Z"></path>
                </g>
                <line stroke-linejoin="round" stroke-width="2" stroke="#6448F4" id="路径" y2="284.785822" x2="506.218583" y1="284.785822" x1="226.322347"></line>
                <g transform="translate(223.5324, 162.3312)" id="书1">
                    <rect height="358.617052" width="282.68615" y="0" x="0" fill-rule="nonzero" fill="#806EFF" id="矩形"></rect>
                    <circle r="32" cy="59.5419459" cx="70.5914034" fill="#160A45" id="椭圆形"></circle>
                    <circle r="32" cy="59.5419459" cx="212.800743" fill="#160A45" id="椭圆形"></circle>
                    <path fill-rule="nonzero" fill="#FFFFFF" id="路径" d="M85.0337868,60.8017155 L85.0337868,88.9141676 C85.03175,117.862468 110.06266,145.041939 138.983658,146.298913 L141.343075,146.346101 C170.286809,146.341822 195.829736,120.178223 197.086511,91.2617874 L197.145497,88.9141676 L197.145497,60.8017155 L227.856993,60.8017155 L227.856993,88.9141676 C227.856993,136.694485 189.123393,175.428086 141.343075,175.428086 C93.5627572,175.428086 54.8291567,136.694485 54.8291567,88.9141676 L54.8291567,60.8017155 L85.0337868,60.8017155 Z"></path>
                    <polygon points="29.3845806 298.805995 253.301569 298.805995 253.301569 330.805995 29.3845806 330.805995" fill="#FFFFFF" fill-opacity="0.8" id="形状结合"></polygon>
                </g>
            </g>
        </g>
    </g>
</svg>