<svg xmlns:xlink="http://www.w3.org/1999/xlink" xmlns="http://www.w3.org/2000/svg" version="1.1" viewBox="0 0 1024 1024" height="1024px" width="1024px">
    <title>店铺打样</title>
    <g fill-rule="evenodd" fill="none" stroke-width="1" stroke="none" id="店铺打样">
        <g id="店铺打烊">
            <rect height="1024" width="1024" y="0" x="0" opacity="0" fill="#FFFFFF" fill-opacity="0" id="矩形"></rect>
            <g transform="translate(68.4, 64)" id="404-01">
                <g transform="translate(448, 448) scale(-1, -1) translate(-448, -448)" id="辅助线">
                    <path fill-rule="nonzero" fill="#DEDAFF" id="形状结合" d="M766,636 C803.555363,636 834,666.444637 834,704 C834,741.555363 803.555363,772 766,772 C736.527661,772 711.434566,753.250224 701.998285,727.028239 C692.565434,753.250224 667.472339,772 638,772 C608.527661,772 583.434566,753.250224 573.998285,727.028239 C570.000131,710.287956 570.000131,700.362101 573.999124,680.97678 C583.432013,654.751684 608.526161,636 638,636 C667.440004,636 692.554144,654.724795 701.999124,680.97678 C711.432013,654.751684 736.526161,636 766,636 Z M638,644 C604.862915,644 578,670.862915 578,704 C578,737.137085 604.862915,764 638,764 C671.137085,764 698.000131,737.137085 698.000131,704.032405 L697.991951,703.006488 C697.461506,670.29014 670.767098,644 638,644 Z M766,644 C732.862915,644 706,670.862915 706,704 C706,737.137085 732.862915,764 766,764 C799.137085,764 826,737.137085 826,704 C826,670.862915 799.137085,644 766,644 Z"></path>
                    <path fill-rule="nonzero" fill="#DEDAFF" id="形状结合" d="M766,508 C803.555363,508 834,538.444637 834,576 C834,613.555363 803.555363,644 766,644 C736.527661,644 711.434566,625.250224 701.998285,599.028239 C692.554144,580 692.554144,568.145544 701.999124,552.97678 C711.432013,526.751684 736.526161,508 766,508 Z M766,516 C732.862915,516 706,542.862915 706,576 C706,609.137085 732.862915,636 766,636 C799.137085,636 826,609.137085 826,576 C826,542.862915 799.137085,516 766,516 Z"></path>
                    <path fill="#F3F3F3" id="形状结合" d="M772.000281,719.495858 L772,896 L764,896 L764.000723,719.496116 C765.278985,719.825054 766.619062,720 768,720 C769.381299,720 770.721716,719.824962 772.000281,719.495858 Z M644.000281,719.495858 L644,896 L636,896 L636.000723,719.496116 C637.278985,719.825054 638.619062,720 640,720 C641.381299,720 642.721716,719.824962 644.000281,719.495858 Z M783.496116,700.000723 L896,700 L896,708 L783.495858,708.000281 C783.824962,706.721716 784,705.381299 784,704 C784,702.619062 783.825054,701.278985 783.496116,700.000723 Z M752,704 C752,705.381299 752.175038,706.721716 752.504142,708.000281 L655.495858,708.000281 C655.824962,706.721716 656,705.381299 656,704 C656,702.619062 655.825054,701.278985 655.496116,700.000723 L752.503884,700.000723 C752.174946,701.278985 752,702.619062 752,704 Z M624,704 C624,705.381299 624.175038,706.721716 624.504142,708.000281 L0,708 L0,700 L624.503884,700.000723 C624.174946,701.278985 624,702.619062 624,704 Z M644,-5.70883482e-14 L644,572 L752.503884,572.000723 C752.174946,573.278985 752,574.619062 752,576 C752,577.381299 752.175038,578.721716 752.504142,580.000281 L644,580 L644.000281,688.504142 C642.721716,688.175038 641.381299,688 640,688 C638.619062,688 637.278985,688.174946 636.000723,688.503884 L636,580 L0,580 L0,572 L636,572 L636,-5.65984895e-14 L644,-5.70883482e-14 Z M772.000281,591.495858 L772.000281,688.504142 C770.721716,688.175038 769.381299,688 768,688 C766.619062,688 765.278985,688.174946 764.000723,688.503884 L764.000723,591.496116 C765.278985,591.825054 766.619062,592 768,592 C769.381299,592 770.721716,591.824962 772.000281,591.495858 Z M783.496116,572.000723 L896,572 L896,580 L783.495858,580.000281 C783.824962,578.721716 784,577.381299 784,576 C784,574.619062 783.825054,573.278985 783.496116,572.000723 Z M772,-5.70883482e-14 L772.000281,560.504142 C770.721716,560.175038 769.381299,560 768,560 C766.619062,560 765.278985,560.174946 764.000723,560.503884 L764,-5.65984895e-14 L772,-5.70883482e-14 Z"></path>
                </g>
                <g transform="translate(159.8358, 192)" id="编组-10">
                    <g id="商店">
                        <rect height="272.667626" width="476.64575" y="270.425963" x="44.1721836" fill="#BEB9FF" id="矩形备份"></rect>
                        <polygon points="87.5094522 307.141294 247.761041 307.141294 247.761041 541.355155 87.5094522 541.355155" fill="#806EFF" id="路径"></polygon>
                        <rect height="32.8721207" width="82.1803018" y="411.605106" x="165.580739" fill="#FFFFFF" fill-opacity="0.8" id="矩形"></rect>
                        <rect height="32.8721207" width="147.924543" y="395.169046" x="327.869978" fill="#FFFFFF" id="矩形备份-5"></rect>
                        <rect height="62.7568345" width="32.8932374" y="307.141294" x="327.869978" fill="#160A45" id="矩形备份-5"></rect>
                        <rect height="234.21386" width="32.8721207" y="308.879729" x="87.5094522" fill="#4E33D6" id="矩形备份-4"></rect>
                        <rect rx="5.75" height="32.8721207" width="32.8721207" y="307.141294" x="442.9224" fill="#FFFFFF" id="矩形"></rect>
                        <rect height="45.199166" width="534.171962" y="0" x="15.409078" fill-rule="nonzero" fill="#B7B1FF" id="矩形"></rect>
                        <rect height="90.3983319" width="45.199166" y="0" x="15.409078" fill-rule="nonzero" fill="#B7B1FF" id="矩形"></rect>
                        <rect height="90.3983319" width="45.199166" y="0" x="504.381874" fill-rule="nonzero" fill="#B7B1FF" id="矩形备份-2"></rect>
                        <rect height="45.199166" width="45.199166" y="0" x="15.409078" fill="#160A45" id="矩形"></rect>
                        <rect height="45.199166" width="45.199166" y="0" x="504.381874" fill="#160A45" id="矩形备份-3"></rect>
                        <rect height="64.9208633" width="564.989575" y="111.975536" x="0.0281859459" fill="#CCCCCC" id="矩形"></rect>
                        <rect height="64.9208633" width="564.989575" y="111.975536" x="0.0281859459" fill-rule="nonzero" fill="#6448F4" id="矩形"></rect>
                        <path fill="#BEB9FF" id="路径" d="M564.990118,148.236952 L0,148.236952 C0,154.242162 0.0401926551,157.45834 0,168.91407 L0,209.313819 C6.07161385,233.632517 28.7944672,251.985664 56.0577822,251.985664 C83.3210971,251.985664 106.04395,233.632517 111.077494,209.313819 L113.152547,209.313819 C118.196363,233.632517 140.919216,251.985664 168.182531,251.985664 C195.456118,251.985664 218.168699,233.632517 223.202243,209.313819 L225.277295,209.313819 C230.321111,233.632517 253.043965,251.985664 280.307279,251.985664 C307.570594,251.985664 330.293448,233.632517 335.326991,209.313819 L337.402044,209.313819 C342.44586,233.632517 365.168713,251.985664 392.432028,251.985664 C419.695343,251.985664 442.418196,233.632517 447.45174,209.313819 L449.526793,209.313819 C454.570609,233.632517 477.283189,251.985664 504.556777,251.985664 C531.830364,251.985664 559.956572,233.186397 564.990118,208.867699 L564.990118,168.91407 C564.990118,163.405852 564.990118,148.236952 564.990118,148.236952 Z"></path>
                    </g>
                    <g transform="translate(365.7849, 346.8411)" id="编组-8"></g>
                    <g transform="translate(367.3757, 346.8411)" id="编组-8">
                        <path fill="#6448F4" id="形状结合" d="M211.104618,36.2198263 C259.39772,84.5129281 259.39772,162.811516 211.104618,211.104618 C162.811516,259.39772 84.5129281,259.39772 36.2198263,211.104618 C-12.0732754,162.811516 -12.0732754,84.5129281 36.2198263,36.2198263 C84.5129281,-12.0732754 162.811516,-12.0732754 211.104618,36.2198263 Z M201.058892,66.1470979 L66.3506511,201.210136 C104.092516,229.175958 157.623503,226.051796 191.83765,191.83765 C226.113352,157.561947 229.187099,103.899836 201.058892,66.1470979 Z M55.4867949,55.4867949 C21.5907416,89.3828482 18.2092649,142.238229 45.3423646,179.917054 L181.20652,46.2872968 C143.452257,18.1357636 89.7713268,21.202263 55.4867949,55.4867949 Z"></path>
                        <path fill="#BEB9FF" fill-opacity="0.302114633" id="椭圆形" d="M191.83765,191.83765 C229.489898,154.185401 229.489898,93.1390437 191.83765,55.4867949 C154.185401,17.8345461 93.1390437,17.8345461 55.4867949,55.4867949 C17.8345461,93.1390437 17.8345461,154.185401 55.4867949,191.83765 C93.1390437,229.489898 154.185401,229.489898 191.83765,191.83765 Z"></path>
                    </g>
                </g>
            </g>
        </g>
    </g>
</svg>