<?xml version="1.0" standalone="no"?><!DOCTYPE svg PUBLIC "-//W3C//DTD SVG 1.1//EN" "http://www.w3.org/Graphics/SVG/1.1/DTD/svg11.dtd"><svg height="1024" node-id="1" sillyvg="true" template-height="1024" template-width="1024" version="1.1" viewBox="0 0 1024 1024" width="1024" xmlns="http://www.w3.org/2000/svg" xmlns:xlink="http://www.w3.org/1999/xlink"><defs node-id="19"></defs><g node-id="21"><path d="M 0.00 0.00 L 1024.00 0.00 L 1024.00 1024.00 L 0.00 1024.00 Z" fill="#ffffff" fill-opacity="0" fill-rule="evenodd" group-id="1" id="矩形" node-id="6" stroke="none" target-height="1024" target-width="1024" target-x="0" target-y="0"></path><g node-id="22"><g node-id="23"><path d="M 256.00 636.00 L 250.35 636.24 L 244.90 636.90 L 239.63 637.98 L 234.51 639.47 L 229.50 641.36 L 224.73 643.60 L 220.18 646.19 L 215.84 649.12 L 211.73 652.38 L 207.92 655.92 L 204.38 659.73 L 201.12 663.84 L 198.19 668.18 L 195.60 672.73 L 193.36 677.50 L 191.47 682.51 L 189.98 687.63 L 188.90 692.90 L 188.24 698.35 L 188.00 704.00 L 188.24 709.65 L 188.90 715.10 L 189.98 720.37 L 191.47 725.49 L 193.36 730.50 L 195.60 735.27 L 198.19 739.82 L 201.12 744.16 L 204.38 748.27 L 207.92 752.08 L 211.73 755.62 L 215.84 758.88 L 220.18 761.81 L 224.73 764.40 L 229.50 766.64 L 234.51 768.53 L 239.63 770.02 L 244.90 771.10 L 250.35 771.76 L 256.00 772.00 L 261.54 771.77 L 266.89 771.13 L 272.07 770.10 L 277.11 768.66 L 282.04 766.83 L 286.74 764.67 L 291.23 762.18 L 295.51 759.35 L 299.58 756.20 L 303.38 752.78 L 306.90 749.09 L 310.17 745.12 L 313.12 740.92 L 315.74 736.51 L 318.03 731.88 L 320.00 727.03 L 321.97 731.88 L 324.26 736.51 L 326.88 740.92 L 329.84 745.12 L 333.10 749.09 L 336.62 752.78 L 340.42 756.20 L 344.49 759.35 L 348.78 762.18 L 353.26 764.67 L 357.96 766.83 L 362.89 768.66 L 367.93 770.10 L 373.11 771.13 L 378.46 771.77 L 384.00 772.00 L 389.54 771.77 L 394.89 771.13 L 400.07 770.10 L 405.11 768.66 L 410.04 766.83 L 414.74 764.67 L 419.23 762.18 L 423.51 759.35 L 427.58 756.20 L 431.38 752.78 L 434.90 749.09 L 438.17 745.12 L 441.12 740.92 L 443.74 736.51 L 446.03 731.88 L 448.00 727.03 L 449.97 731.88 L 452.26 736.51 L 454.88 740.92 L 457.84 745.12 L 461.10 749.09 L 464.62 752.78 L 468.42 756.20 L 472.49 759.35 L 476.78 762.18 L 481.26 764.67 L 485.96 766.83 L 490.89 768.66 L 495.93 770.10 L 501.11 771.13 L 506.46 771.77 L 512.00 772.00 L 517.65 771.76 L 523.10 771.10 L 528.37 770.02 L 533.49 768.53 L 538.50 766.64 L 543.27 764.40 L 547.82 761.81 L 552.16 758.88 L 556.27 755.62 L 560.08 752.08 L 563.62 748.27 L 566.88 744.16 L 569.81 739.82 L 572.40 735.27 L 574.64 730.50 L 576.53 725.49 L 578.02 720.37 L 579.10 715.10 L 579.76 709.65 L 580.00 704.00 L 579.76 698.35 L 579.10 692.90 L 578.02 687.63 L 576.53 682.51 L 574.64 677.50 L 572.40 672.73 L 569.81 668.18 L 566.88 663.84 L 563.62 659.73 L 560.08 655.92 L 556.27 652.38 L 552.16 649.12 L 547.82 646.19 L 543.27 643.60 L 538.50 641.36 L 533.49 639.47 L 528.37 637.98 L 523.10 636.90 L 517.65 636.24 L 512.00 636.00 L 506.47 636.23 L 501.12 636.87 L 495.94 637.90 L 490.91 639.34 L 485.98 641.16 L 481.28 643.32 L 476.79 645.81 L 472.50 648.64 L 468.43 651.79 L 464.64 655.21 L 461.11 658.90 L 457.85 662.87 L 454.89 667.08 L 452.27 671.49 L 449.97 676.11 L 448.00 680.98 L 446.03 676.12 L 443.74 671.50 L 441.12 667.09 L 438.17 662.89 L 434.90 658.91 L 431.38 655.22 L 427.59 651.81 L 423.52 648.65 L 419.23 645.82 L 414.74 643.33 L 410.04 641.17 L 405.11 639.34 L 400.08 637.90 L 394.89 636.87 L 389.54 636.23 L 384.00 636.00 L 378.47 636.23 L 373.12 636.87 L 367.94 637.90 L 362.91 639.34 L 357.98 641.16 L 353.28 643.32 L 348.79 645.81 L 344.50 648.64 L 340.43 651.79 L 336.64 655.21 L 333.11 658.90 L 329.85 662.87 L 326.89 667.08 L 324.27 671.49 L 321.97 676.11 L 320.00 680.98 L 318.03 676.12 L 315.74 671.50 L 313.12 667.09 L 310.17 662.89 L 306.90 658.91 L 303.38 655.22 L 299.59 651.81 L 295.52 648.65 L 291.23 645.82 L 286.74 643.33 L 282.04 641.17 L 277.11 639.34 L 272.08 637.90 L 266.89 636.87 L 261.54 636.23 L 256.00 636.00 Z M 384.00 644.00 L 388.98 644.21 L 393.79 644.80 L 398.45 645.75 L 402.96 647.06 L 407.38 648.73 L 411.59 650.71 L 415.61 652.99 L 419.44 655.58 L 424.21 659.47 L 428.53 663.79 L 432.42 668.56 L 435.01 672.39 L 437.29 676.41 L 439.27 680.62 L 440.94 685.04 L 442.25 689.55 L 443.20 694.21 L 443.79 699.02 L 444.00 704.00 L 443.79 708.98 L 443.20 713.79 L 442.25 718.45 L 440.94 722.96 L 439.27 727.38 L 437.29 731.59 L 435.01 735.61 L 432.42 739.44 L 428.53 744.21 L 424.21 748.53 L 419.44 752.42 L 415.61 755.01 L 411.59 757.29 L 407.38 759.27 L 402.96 760.94 L 398.45 762.25 L 393.79 763.20 L 388.98 763.79 L 384.00 764.00 L 379.02 763.79 L 374.21 763.21 L 369.55 762.26 L 365.04 760.94 L 360.62 759.27 L 356.41 757.29 L 352.39 755.01 L 348.56 752.43 L 343.79 748.54 L 339.47 744.22 L 335.58 739.44 L 332.99 735.61 L 330.71 731.60 L 328.73 727.40 L 327.06 722.98 L 325.74 718.47 L 324.79 713.82 L 324.21 709.01 L 324.00 704.03 L 324.01 703.01 L 324.29 698.09 L 324.94 693.35 L 325.95 688.76 L 327.31 684.31 L 329.65 678.55 L 332.52 673.16 L 335.92 668.10 L 339.81 663.41 L 344.13 659.17 L 348.88 655.35 L 354.00 652.03 L 359.43 649.25 L 365.23 647.00 L 369.70 645.71 L 374.31 644.78 L 379.07 644.21 L 384.00 644.00 Z M 512.00 644.00 L 516.98 644.21 L 521.79 644.80 L 526.45 645.75 L 530.96 647.06 L 535.38 648.73 L 539.59 650.71 L 543.61 652.99 L 547.44 655.58 L 552.21 659.47 L 556.53 663.79 L 560.42 668.56 L 563.01 672.39 L 565.29 676.41 L 567.27 680.62 L 568.94 685.04 L 570.25 689.55 L 571.20 694.21 L 571.79 699.02 L 572.00 704.00 L 571.79 708.98 L 571.20 713.79 L 570.25 718.45 L 568.94 722.96 L 567.27 727.38 L 565.29 731.59 L 563.01 735.61 L 560.42 739.44 L 556.53 744.21 L 552.21 748.53 L 547.44 752.42 L 543.61 755.01 L 539.59 757.29 L 535.38 759.27 L 530.96 760.94 L 526.45 762.25 L 521.79 763.20 L 516.98 763.79 L 512.00 764.00 L 507.02 763.79 L 502.21 763.21 L 497.55 762.26 L 493.04 760.94 L 488.62 759.27 L 484.41 757.29 L 480.39 755.01 L 476.56 752.43 L 471.79 748.54 L 467.47 744.22 L 463.58 739.44 L 460.99 735.61 L 458.71 731.60 L 456.73 727.40 L 455.06 722.98 L 453.74 718.47 L 452.79 713.82 L 452.21 709.01 L 452.00 704.03 L 452.01 703.01 L 452.29 698.09 L 452.94 693.35 L 453.95 688.76 L 455.31 684.31 L 457.65 678.55 L 460.52 673.16 L 463.92 668.10 L 467.81 663.41 L 472.13 659.17 L 476.88 655.35 L 481.99 652.03 L 487.43 649.25 L 493.23 647.00 L 497.70 645.71 L 502.31 644.78 L 507.07 644.21 L 512.00 644.00 Z M 256.00 644.00 L 260.98 644.21 L 265.79 644.80 L 270.45 645.75 L 274.96 647.06 L 279.38 648.73 L 283.59 650.71 L 287.61 652.99 L 291.44 655.58 L 296.21 659.47 L 300.53 663.79 L 304.42 668.56 L 307.01 672.39 L 309.29 676.41 L 311.27 680.62 L 312.94 685.04 L 314.25 689.55 L 315.20 694.21 L 315.79 699.02 L 316.00 704.00 L 315.79 708.98 L 315.20 713.79 L 314.25 718.45 L 312.94 722.96 L 311.27 727.38 L 309.29 731.59 L 307.01 735.61 L 304.42 739.44 L 300.53 744.21 L 296.21 748.53 L 291.44 752.42 L 287.61 755.01 L 283.59 757.29 L 279.38 759.27 L 274.96 760.94 L 270.45 762.25 L 265.79 763.20 L 260.98 763.79 L 256.00 764.00 L 251.02 763.79 L 246.21 763.20 L 241.55 762.25 L 237.04 760.94 L 232.62 759.27 L 228.41 757.29 L 224.39 755.01 L 220.56 752.42 L 215.79 748.53 L 211.47 744.21 L 207.58 739.44 L 204.99 735.61 L 202.71 731.59 L 200.73 727.38 L 199.06 722.96 L 197.75 718.45 L 196.80 713.79 L 196.21 708.98 L 196.00 704.00 L 196.21 699.02 L 196.80 694.21 L 197.75 689.55 L 199.06 685.04 L 200.73 680.62 L 202.71 676.41 L 204.99 672.39 L 207.58 668.56 L 211.47 663.79 L 215.79 659.47 L 220.56 655.58 L 224.39 652.99 L 228.41 650.71 L 232.62 648.73 L 237.04 647.06 L 241.55 645.75 L 246.21 644.80 L 251.02 644.21 L 256.00 644.00 Z" fill="#dedaff" fill-rule="nonzero" group-id="1,2,3" id="形状结合" node-id="9" stroke="none" target-height="136" target-width="392" target-x="188" target-y="636"></path><path d="M 508.00 719.50 L 508.00 896.00 L 516.00 896.00 L 516.00 719.50 L 514.05 719.87 L 512.00 720.00 L 509.95 719.87 L 508.00 719.50 Z M 252.00 719.50 L 252.00 896.00 L 260.00 896.00 L 260.00 719.50 L 258.05 719.87 L 256.00 720.00 L 253.95 719.87 L 252.00 719.50 Z M 380.00 719.50 L 380.00 896.00 L 388.00 896.00 L 388.00 719.50 L 386.05 719.87 L 384.00 720.00 L 381.95 719.87 L 380.00 719.50 Z M 240.50 700.00 L 64.00 700.00 L 64.00 708.00 L 240.50 708.00 L 240.13 706.05 L 240.00 704.00 L 240.13 701.95 L 240.50 700.00 Z M 272.00 704.00 L 271.87 706.05 L 271.50 708.00 L 368.50 708.00 L 368.13 706.05 L 368.00 704.00 L 368.13 701.95 L 368.50 700.00 L 271.50 700.00 L 271.87 701.95 L 272.00 704.00 Z M 400.00 704.00 L 399.87 706.05 L 399.50 708.00 L 496.50 708.00 L 496.13 706.05 L 496.00 704.00 L 496.13 701.95 L 496.50 700.00 L 399.50 700.00 L 399.87 701.95 L 400.00 704.00 Z M 528.00 704.00 L 527.87 706.05 L 527.50 708.00 L 960.00 708.00 L 960.00 700.00 L 527.50 700.00 L 527.87 701.95 L 528.00 704.00 Z M 508.00 128.00 L 508.00 572.00 L 388.00 572.00 L 388.00 128.00 L 380.00 128.00 L 380.00 572.00 L 260.00 572.00 L 260.00 128.00 L 252.00 128.00 L 252.00 572.00 L 64.00 572.00 L 64.00 580.00 L 252.00 580.00 L 252.00 688.50 L 253.95 688.13 L 256.00 688.00 L 258.05 688.13 L 260.00 688.50 L 260.00 580.00 L 380.00 580.00 L 380.00 688.50 L 381.95 688.13 L 384.00 688.00 L 386.05 688.13 L 388.00 688.50 L 388.00 580.00 L 508.00 580.00 L 508.00 688.50 L 509.95 688.13 L 512.00 688.00 L 514.05 688.13 L 516.00 688.50 L 516.00 580.00 L 960.00 580.00 L 960.00 572.00 L 516.00 572.00 L 516.00 128.00 L 508.00 128.00 Z" fill="#f3f3f3" fill-rule="evenodd" group-id="1,2,3" id="形状结合" node-id="10" stroke="none" target-height="768" target-width="896" target-x="64" target-y="128"></path></g><g node-id="24"><path d="M 582.00 611.20 L 621.20 572.00 L 778.00 728.80 L 738.80 768.00 Z" fill="#dedaff" fill-rule="evenodd" group-id="1,2,4" id="矩形" node-id="12" stroke="none" target-height="196" target-width="196" target-x="582" target-y="572"></path><path d="M 480.00 570.00 L 576.00 474.00 L 672.00 570.00 L 576.00 666.00 Z" fill="#beb9ff" fill-rule="evenodd" group-id="1,2,4" id="矩形" node-id="13" stroke="none" target-height="192" target-width="192" target-x="480" target-y="474"></path><g node-id="25"><path d="M 569.27 569.27 L 576.52 561.66 L 583.30 553.86 L 589.63 545.88 L 595.52 537.69 L 600.97 529.31 L 606.07 520.64 L 610.73 511.84 L 614.95 502.92 L 618.74 493.86 L 622.11 484.66 L 625.08 475.29 L 627.61 465.87 L 629.72 456.39 L 631.41 446.83 L 632.68 437.20 L 633.52 427.51 L 633.95 417.84 L 633.95 408.16 L 633.52 398.49 L 632.68 388.80 L 631.41 379.17 L 629.72 369.61 L 627.61 360.13 L 625.08 350.71 L 622.11 341.34 L 618.74 332.14 L 614.95 323.08 L 610.73 314.16 L 606.07 305.36 L 600.97 296.69 L 595.52 288.31 L 589.63 280.12 L 583.30 272.14 L 576.52 264.34 L 569.27 256.73 L 561.66 249.48 L 553.86 242.70 L 545.88 236.37 L 537.69 230.48 L 529.31 225.03 L 520.64 219.93 L 511.84 215.27 L 502.92 211.05 L 493.86 207.26 L 484.66 203.89 L 475.29 200.92 L 465.87 198.39 L 456.39 196.28 L 446.83 194.59 L 437.20 193.32 L 427.51 192.47 L 417.84 192.05 L 408.16 192.05 L 398.49 192.47 L 388.80 193.32 L 379.17 194.59 L 369.61 196.28 L 360.13 198.39 L 350.71 200.92 L 341.34 203.89 L 332.14 207.26 L 323.08 211.05 L 314.16 215.27 L 305.36 219.93 L 296.69 225.03 L 288.31 230.48 L 280.12 236.37 L 272.14 242.70 L 264.34 249.48 L 256.73 256.73 L 249.48 264.34 L 242.70 272.14 L 236.37 280.12 L 230.48 288.31 L 225.03 296.69 L 219.93 305.36 L 215.27 314.16 L 211.05 323.08 L 207.26 332.14 L 203.89 341.34 L 200.92 350.71 L 198.39 360.13 L 196.28 369.61 L 194.59 379.17 L 193.32 388.80 L 192.47 398.49 L 192.05 408.16 L 192.05 417.84 L 192.47 427.51 L 193.32 437.20 L 194.59 446.83 L 196.28 456.39 L 198.39 465.87 L 200.92 475.29 L 203.89 484.66 L 207.26 493.86 L 211.05 502.92 L 215.27 511.84 L 219.93 520.64 L 225.03 529.31 L 230.48 537.69 L 236.37 545.88 L 242.70 553.86 L 249.48 561.66 L 256.73 569.27 L 264.34 576.52 L 272.14 583.30 L 280.12 589.63 L 288.31 595.52 L 296.69 600.97 L 305.36 606.07 L 314.16 610.73 L 323.08 614.95 L 332.14 618.74 L 341.34 622.11 L 350.71 625.08 L 360.13 627.61 L 369.61 629.72 L 379.17 631.41 L 388.80 632.68 L 398.49 633.53 L 408.16 633.95 L 417.84 633.95 L 427.51 633.52 L 437.20 632.68 L 446.83 631.41 L 456.39 629.72 L 465.87 627.61 L 475.29 625.08 L 484.66 622.11 L 493.86 618.74 L 502.92 614.95 L 511.84 610.73 L 520.64 606.07 L 529.31 600.97 L 537.69 595.52 L 545.88 589.63 L 553.86 583.30 L 561.66 576.52 L 569.27 569.27 Z" fill="#dedaff" fill-rule="nonzero" group-id="1,2,4,5" id="椭圆形" node-id="15" stroke="none" target-height="441.89453" target-width="441.89453" target-x="192.05275" target-y="192.05275"></path><path d="M 515.99 515.99 L 521.60 510.06 L 526.78 503.96 L 531.55 497.70 L 535.93 491.26 L 539.91 484.64 L 544.42 476.05 L 548.31 467.31 L 551.59 458.41 L 554.27 449.33 L 556.36 440.08 L 557.86 430.80 L 558.75 421.45 L 559.05 412.04 L 558.75 402.62 L 557.86 393.28 L 556.36 384.00 L 554.27 374.75 L 551.59 365.67 L 548.31 356.76 L 544.42 348.03 L 539.91 339.43 L 535.93 332.82 L 531.55 326.38 L 526.78 320.12 L 521.60 314.02 L 515.99 308.09 L 510.06 302.48 L 503.96 297.30 L 497.70 292.52 L 491.26 288.15 L 484.64 284.16 L 476.05 279.66 L 467.31 275.77 L 458.41 272.49 L 449.33 269.81 L 440.08 267.71 L 430.80 266.22 L 421.45 265.32 L 412.04 265.03 L 402.62 265.32 L 393.28 266.22 L 384.00 267.71 L 374.75 269.81 L 365.67 272.49 L 356.76 275.77 L 348.03 279.66 L 339.43 284.16 L 332.82 288.15 L 326.38 292.52 L 320.12 297.30 L 314.02 302.48 L 308.09 308.09 L 302.48 314.02 L 297.30 320.12 L 292.52 326.38 L 288.15 332.82 L 284.16 339.43 L 279.66 348.03 L 275.77 356.76 L 272.49 365.67 L 269.81 374.75 L 267.71 384.00 L 266.22 393.28 L 265.32 402.62 L 265.03 412.04 L 265.32 421.45 L 266.22 430.80 L 267.71 440.08 L 269.81 449.33 L 272.49 458.41 L 275.77 467.31 L 279.66 476.05 L 284.16 484.64 L 288.15 491.26 L 292.52 497.70 L 297.30 503.96 L 302.48 510.06 L 308.09 515.99 L 314.02 521.60 L 320.12 526.78 L 326.38 531.55 L 332.82 535.93 L 339.43 539.91 L 348.03 544.42 L 356.76 548.31 L 365.67 551.59 L 374.75 554.27 L 384.00 556.36 L 393.28 557.86 L 402.62 558.75 L 412.04 559.05 L 421.45 558.75 L 430.80 557.86 L 440.08 556.36 L 449.33 554.27 L 458.41 551.59 L 467.31 548.31 L 476.05 544.42 L 484.64 539.91 L 491.26 535.93 L 497.70 531.55 L 503.96 526.78 L 510.06 521.60 L 515.99 515.99 Z" fill="#eeeeff" fill-rule="evenodd" group-id="1,2,4,5" id="椭圆形" node-id="16" stroke="none" target-height="294.0261" target-width="294.0261" target-x="265.0261" target-y="265.0261"></path><path d="M 432.12 436.82 L 432.32 432.57 L 432.90 428.96 L 433.80 425.89 L 434.98 423.28 L 436.53 420.96 L 439.11 418.00 L 443.06 414.24 L 448.73 409.54 L 455.35 404.13 L 460.53 399.44 L 464.47 395.39 L 467.38 391.90 L 469.43 388.89 L 471.68 384.54 L 473.25 380.19 L 474.19 375.80 L 474.50 371.35 L 474.25 366.53 L 473.52 362.01 L 472.33 357.75 L 470.69 353.72 L 468.57 349.90 L 465.97 346.25 L 462.85 342.77 L 459.17 339.44 L 454.87 336.26 L 450.81 333.81 L 446.37 331.69 L 441.50 329.91 L 436.17 328.48 L 430.33 327.42 L 423.93 326.75 L 416.92 326.52 L 408.84 326.79 L 401.62 327.56 L 395.18 328.77 L 389.43 330.40 L 384.30 332.40 L 379.75 334.75 L 375.70 337.44 L 372.11 340.48 L 368.25 344.59 L 364.89 349.03 L 362.02 353.83 L 359.62 359.01 L 357.70 364.63 L 356.27 370.72 L 355.35 377.34 L 355.35 377.34 L 397.18 382.47 L 398.00 377.19 L 399.11 372.94 L 400.43 369.58 L 401.93 366.95 L 403.60 364.93 L 405.70 363.12 L 407.99 361.73 L 410.49 360.73 L 413.23 360.11 L 416.27 359.90 L 419.87 360.14 L 422.76 360.80 L 425.06 361.82 L 426.89 363.16 L 428.38 364.90 L 429.47 366.96 L 430.15 369.40 L 430.39 372.31 L 430.13 374.41 L 429.27 376.68 L 427.70 379.21 L 425.24 382.05 L 421.66 385.25 L 410.62 394.56 L 404.05 400.52 L 400.58 404.08 L 397.69 407.80 L 395.35 411.73 L 393.52 415.90 L 392.55 419.09 L 391.81 422.90 L 391.32 427.42 L 391.15 432.75 L 391.15 432.75 L 391.15 436.82 L 432.12 436.82 Z M 433.63 486.03 L 433.63 447.62 L 389.74 447.62 L 389.74 486.03 L 433.63 486.03 Z" fill="#beb9ff" fill-rule="nonzero" group-id="1,2,4,5" id="?" node-id="17" stroke="none" target-height="159.50436" target-width="119.14783" target-x="355.34784" target-y="326.52173"></path></g></g></g></g></svg>