<?xml version="1.0" standalone="no"?><!DOCTYPE svg PUBLIC "-//W3C//DTD SVG 1.1//EN" "http://www.w3.org/Graphics/SVG/1.1/DTD/svg11.dtd"><svg height="1024" node-id="1" sillyvg="true" template-height="1024" template-width="1024" version="1.1" viewBox="0 0 1024 1024" width="1024" xmlns="http://www.w3.org/2000/svg" xmlns:xlink="http://www.w3.org/1999/xlink"><defs node-id="31"></defs><g node-id="33"><g node-id="34"><path d="M 0.00 0.00 L 1024.00 0.00 L 1024.00 1024.00 L 0.00 1024.00 Z" fill="#ffffff" fill-opacity="0" fill-rule="evenodd" group-id="1,2" id="矩形" node-id="6" stroke="none" target-height="1024" target-width="1024" target-x="0" target-y="0"></path></g><g node-id="35"><g node-id="36"><path d="M 767.20 700.00 L 772.85 700.24 L 778.30 700.90 L 783.57 701.98 L 788.69 703.47 L 793.70 705.36 L 798.47 707.60 L 803.02 710.19 L 807.36 713.12 L 811.47 716.38 L 815.28 719.92 L 818.82 723.73 L 822.08 727.84 L 825.01 732.18 L 827.60 736.73 L 829.84 741.50 L 831.73 746.51 L 833.22 751.63 L 834.30 756.90 L 834.96 762.35 L 835.20 768.00 L 834.96 773.65 L 834.30 779.10 L 833.22 784.37 L 831.73 789.49 L 829.84 794.50 L 827.60 799.27 L 825.01 803.82 L 822.08 808.16 L 818.82 812.27 L 815.28 816.08 L 811.47 819.62 L 807.36 822.88 L 803.02 825.81 L 798.47 828.40 L 793.70 830.64 L 788.69 832.53 L 783.57 834.02 L 778.30 835.10 L 772.85 835.76 L 767.20 836.00 L 761.66 835.77 L 756.31 835.13 L 751.13 834.10 L 746.09 832.66 L 741.16 830.83 L 736.46 828.67 L 731.98 826.18 L 727.69 823.35 L 723.62 820.20 L 719.82 816.78 L 716.30 813.09 L 713.03 809.12 L 710.08 804.92 L 707.46 800.51 L 705.17 795.88 L 703.20 791.03 L 701.23 795.88 L 698.94 800.51 L 696.32 804.92 L 693.36 809.12 L 690.10 813.09 L 686.58 816.78 L 682.78 820.20 L 678.71 823.35 L 674.42 826.18 L 669.94 828.67 L 665.24 830.83 L 660.31 832.66 L 655.27 834.10 L 650.09 835.13 L 644.74 835.77 L 639.20 836.00 L 633.66 835.77 L 628.31 835.13 L 623.13 834.10 L 618.09 832.66 L 613.16 830.83 L 608.46 828.67 L 603.98 826.18 L 599.69 823.35 L 595.62 820.20 L 591.82 816.78 L 588.30 813.09 L 585.03 809.12 L 582.08 804.92 L 579.46 800.51 L 577.17 795.88 L 575.20 791.03 L 573.23 795.88 L 570.94 800.51 L 568.32 804.92 L 565.36 809.12 L 562.10 813.09 L 558.58 816.78 L 554.78 820.20 L 550.71 823.35 L 546.42 826.18 L 541.94 828.67 L 537.24 830.83 L 532.31 832.66 L 527.27 834.10 L 522.09 835.13 L 516.74 835.77 L 511.20 836.00 L 505.55 835.76 L 500.10 835.10 L 494.83 834.02 L 489.71 832.53 L 484.70 830.64 L 479.93 828.40 L 475.38 825.81 L 471.04 822.88 L 466.93 819.62 L 463.12 816.08 L 459.58 812.27 L 456.32 808.16 L 453.39 803.82 L 450.80 799.27 L 448.56 794.50 L 446.67 789.49 L 445.18 784.37 L 444.10 779.10 L 443.44 773.65 L 443.20 768.00 L 443.44 762.35 L 444.10 756.90 L 445.18 751.63 L 446.67 746.51 L 448.56 741.50 L 450.80 736.73 L 453.39 732.18 L 456.32 727.84 L 459.58 723.73 L 463.12 719.92 L 466.93 716.38 L 471.04 713.12 L 475.38 710.18 L 479.93 707.60 L 484.70 705.36 L 489.71 703.47 L 494.83 701.98 L 500.10 700.90 L 505.55 700.24 L 511.20 700.00 L 516.73 700.23 L 522.08 700.87 L 527.26 701.90 L 532.29 703.34 L 537.22 705.16 L 541.92 707.32 L 546.41 709.81 L 550.70 712.64 L 554.77 715.79 L 558.56 719.21 L 562.09 722.90 L 565.35 726.87 L 568.31 731.08 L 570.93 735.49 L 573.23 740.11 L 575.20 744.98 L 577.17 740.12 L 579.46 735.50 L 582.08 731.09 L 585.03 726.89 L 588.30 722.91 L 591.82 719.22 L 595.61 715.81 L 599.68 712.65 L 603.97 709.82 L 608.46 707.33 L 613.16 705.17 L 618.09 703.34 L 623.12 701.90 L 628.31 700.87 L 633.66 700.23 L 639.20 700.00 L 644.73 700.23 L 650.08 700.87 L 655.26 701.90 L 660.29 703.34 L 665.22 705.16 L 669.92 707.32 L 674.41 709.81 L 678.70 712.64 L 682.77 715.79 L 686.56 719.21 L 690.09 722.90 L 693.35 726.87 L 696.31 731.08 L 698.93 735.49 L 701.23 740.11 L 703.20 744.98 L 705.17 740.12 L 707.46 735.50 L 710.08 731.09 L 713.03 726.89 L 716.30 722.91 L 719.82 719.22 L 723.61 715.81 L 727.68 712.65 L 731.97 709.82 L 736.46 707.33 L 741.16 705.17 L 746.09 703.34 L 751.12 701.90 L 756.31 700.87 L 761.66 700.23 L 767.20 700.00 Z M 639.20 708.00 L 634.22 708.21 L 629.41 708.80 L 624.75 709.75 L 620.24 711.06 L 615.82 712.73 L 611.61 714.71 L 607.59 716.99 L 603.76 719.58 L 598.99 723.47 L 594.67 727.79 L 590.78 732.56 L 588.19 736.39 L 585.91 740.41 L 583.93 744.62 L 582.26 749.04 L 580.95 753.55 L 580.00 758.21 L 579.41 763.02 L 579.20 768.00 L 579.41 772.98 L 580.00 777.79 L 580.95 782.45 L 582.26 786.96 L 583.93 791.38 L 585.91 795.59 L 588.19 799.61 L 590.78 803.44 L 594.67 808.21 L 598.99 812.53 L 603.76 816.42 L 607.59 819.01 L 611.61 821.29 L 615.82 823.27 L 620.24 824.94 L 624.75 826.25 L 629.41 827.20 L 634.22 827.79 L 639.20 828.00 L 644.18 827.79 L 648.99 827.20 L 653.65 826.26 L 658.16 824.94 L 662.58 823.27 L 666.79 821.29 L 670.81 819.01 L 674.64 816.43 L 679.41 812.54 L 683.73 808.22 L 687.62 803.44 L 690.21 799.61 L 692.49 795.60 L 694.47 791.40 L 696.14 786.98 L 697.46 782.47 L 698.41 777.82 L 698.99 773.01 L 699.20 768.03 L 699.19 767.01 L 698.91 762.09 L 698.26 757.35 L 697.25 752.76 L 695.89 748.31 L 693.55 742.55 L 690.68 737.16 L 687.28 732.10 L 683.39 727.41 L 679.07 723.17 L 674.32 719.35 L 669.21 716.03 L 663.77 713.25 L 657.97 711.00 L 653.50 709.71 L 648.89 708.78 L 644.13 708.21 L 639.20 708.00 Z M 767.20 708.00 L 762.22 708.21 L 757.41 708.80 L 752.75 709.75 L 748.24 711.06 L 743.82 712.73 L 739.61 714.71 L 735.59 716.99 L 731.76 719.58 L 726.99 723.47 L 722.67 727.79 L 718.78 732.56 L 716.19 736.39 L 713.91 740.41 L 711.93 744.62 L 710.26 749.04 L 708.95 753.55 L 708.00 758.21 L 707.41 763.02 L 707.20 768.00 L 707.41 772.98 L 708.00 777.79 L 708.95 782.45 L 710.26 786.96 L 711.93 791.38 L 713.91 795.59 L 716.19 799.61 L 718.78 803.44 L 722.67 808.21 L 726.99 812.53 L 731.76 816.42 L 735.59 819.01 L 739.61 821.29 L 743.82 823.27 L 748.24 824.94 L 752.75 826.25 L 757.41 827.20 L 762.22 827.79 L 767.20 828.00 L 772.18 827.79 L 776.99 827.20 L 781.65 826.25 L 786.16 824.94 L 790.58 823.27 L 794.79 821.29 L 798.81 819.01 L 802.64 816.42 L 807.41 812.53 L 811.73 808.21 L 815.62 803.44 L 818.21 799.61 L 820.49 795.59 L 822.47 791.38 L 824.14 786.96 L 825.45 782.45 L 826.40 777.79 L 826.99 772.98 L 827.20 768.00 L 826.99 763.02 L 826.40 758.21 L 825.45 753.55 L 824.14 749.04 L 822.47 744.62 L 820.49 740.41 L 818.21 736.39 L 815.62 732.56 L 811.73 727.79 L 807.41 723.47 L 802.64 719.58 L 798.81 716.99 L 794.79 714.71 L 790.58 712.73 L 786.16 711.06 L 781.65 709.75 L 776.99 708.80 L 772.18 708.21 L 767.20 708.00 Z M 511.20 708.00 L 506.22 708.21 L 501.41 708.80 L 496.75 709.75 L 492.24 711.06 L 487.82 712.73 L 483.61 714.71 L 479.59 716.99 L 475.76 719.58 L 470.99 723.47 L 466.67 727.79 L 462.78 732.56 L 460.19 736.39 L 457.91 740.41 L 455.93 744.62 L 454.26 749.04 L 452.95 753.55 L 452.00 758.21 L 451.41 763.02 L 451.20 768.00 L 451.41 772.98 L 452.00 777.79 L 452.95 782.45 L 454.26 786.96 L 455.93 791.38 L 457.91 795.59 L 460.19 799.61 L 462.78 803.44 L 466.67 808.21 L 470.99 812.53 L 475.76 816.42 L 479.59 819.01 L 483.61 821.29 L 487.82 823.27 L 492.24 824.94 L 496.75 826.25 L 501.41 827.20 L 506.22 827.79 L 511.20 828.00 L 516.18 827.79 L 520.99 827.20 L 525.65 826.25 L 530.16 824.94 L 534.58 823.27 L 538.79 821.29 L 542.81 819.01 L 546.64 816.43 L 551.41 812.54 L 555.73 808.22 L 559.62 803.44 L 562.21 799.61 L 564.49 795.60 L 566.47 791.40 L 568.14 786.98 L 569.46 782.47 L 570.41 777.82 L 570.99 773.01 L 571.20 768.03 L 571.19 767.01 L 570.91 762.09 L 570.26 757.35 L 569.25 752.76 L 567.89 748.31 L 565.55 742.55 L 562.68 737.16 L 559.28 732.10 L 555.39 727.41 L 551.07 723.17 L 546.32 719.35 L 541.21 716.03 L 535.77 713.25 L 529.97 711.00 L 525.50 709.71 L 520.89 708.78 L 516.13 708.21 L 511.20 708.00 Z" fill="#dedaff" fill-rule="nonzero" group-id="1,3,4" id="形状结合" node-id="9" stroke="none" target-height="136" target-width="392" target-x="443.2" target-y="700"></path><path d="M 767.20 572.00 L 772.85 572.24 L 778.30 572.90 L 783.57 573.98 L 788.69 575.47 L 793.70 577.36 L 798.47 579.60 L 803.02 582.19 L 807.36 585.12 L 811.47 588.38 L 815.28 591.92 L 818.82 595.73 L 822.08 599.84 L 825.01 604.18 L 827.60 608.73 L 829.84 613.50 L 831.73 618.51 L 833.22 623.63 L 834.30 628.90 L 834.96 634.35 L 835.20 640.00 L 834.96 645.65 L 834.30 651.10 L 833.22 656.37 L 831.73 661.49 L 829.84 666.50 L 827.60 671.27 L 825.01 675.82 L 822.08 680.16 L 818.82 684.27 L 815.28 688.08 L 811.47 691.62 L 807.36 694.88 L 803.02 697.81 L 798.47 700.40 L 793.70 702.64 L 788.69 704.53 L 783.57 706.02 L 778.30 707.10 L 772.85 707.76 L 767.20 708.00 L 761.66 707.77 L 756.31 707.13 L 751.13 706.10 L 746.09 704.66 L 741.16 702.83 L 736.46 700.67 L 731.98 698.18 L 727.69 695.35 L 723.62 692.20 L 719.82 688.78 L 716.30 685.09 L 713.03 681.12 L 710.08 676.92 L 707.46 672.51 L 705.17 667.88 L 703.20 663.03 L 701.23 667.88 L 698.94 672.51 L 696.32 676.92 L 693.36 681.12 L 690.10 685.09 L 686.58 688.78 L 682.78 692.20 L 678.71 695.35 L 674.42 698.18 L 669.94 700.67 L 665.24 702.83 L 660.31 704.66 L 655.27 706.10 L 650.09 707.13 L 644.74 707.77 L 639.20 708.00 L 633.66 707.77 L 628.31 707.13 L 623.13 706.10 L 618.09 704.66 L 613.16 702.83 L 608.46 700.67 L 603.98 698.18 L 599.69 695.35 L 595.62 692.20 L 591.82 688.78 L 588.30 685.09 L 585.03 681.12 L 582.08 676.92 L 579.46 672.51 L 577.17 667.88 L 575.20 663.03 L 573.23 667.88 L 570.94 672.51 L 568.32 676.92 L 565.36 681.12 L 562.10 685.09 L 558.58 688.78 L 554.78 692.20 L 550.71 695.35 L 546.42 698.18 L 541.94 700.67 L 537.24 702.83 L 532.31 704.66 L 527.27 706.10 L 522.09 707.13 L 516.74 707.77 L 511.20 708.00 L 505.55 707.76 L 500.10 707.10 L 494.83 706.02 L 489.71 704.53 L 484.70 702.64 L 479.93 700.40 L 475.38 697.81 L 471.04 694.88 L 466.93 691.62 L 463.12 688.08 L 459.58 684.27 L 456.32 680.16 L 453.39 675.82 L 450.80 671.27 L 448.56 666.50 L 446.67 661.49 L 445.18 656.37 L 444.10 651.10 L 443.44 645.65 L 443.20 640.00 L 443.44 634.35 L 444.10 628.90 L 445.18 623.63 L 446.67 618.51 L 448.56 613.50 L 450.80 608.73 L 453.39 604.18 L 456.32 599.84 L 459.58 595.73 L 463.12 591.92 L 466.93 588.38 L 471.04 585.12 L 475.38 582.19 L 479.93 579.60 L 484.70 577.36 L 489.71 575.47 L 494.83 573.98 L 500.10 572.90 L 505.55 572.24 L 511.20 572.00 L 516.73 572.23 L 522.08 572.87 L 527.26 573.90 L 532.29 575.34 L 537.22 577.16 L 541.92 579.32 L 546.41 581.81 L 550.70 584.64 L 554.77 587.79 L 558.56 591.21 L 562.09 594.90 L 565.35 598.87 L 568.31 603.08 L 570.93 607.49 L 573.23 612.11 L 575.20 616.98 L 577.17 612.12 L 579.46 607.50 L 582.08 603.09 L 585.03 598.89 L 588.30 594.91 L 591.82 591.22 L 595.61 587.81 L 599.68 584.65 L 603.97 581.82 L 608.46 579.33 L 613.16 577.17 L 618.09 575.34 L 623.12 573.90 L 628.31 572.87 L 633.66 572.23 L 639.20 572.00 L 644.73 572.23 L 650.08 572.87 L 655.26 573.90 L 660.29 575.34 L 665.22 577.16 L 669.92 579.32 L 674.41 581.81 L 678.70 584.64 L 682.77 587.79 L 686.56 591.21 L 690.09 594.90 L 693.35 598.87 L 696.31 603.08 L 698.93 607.49 L 701.23 612.11 L 703.20 616.98 L 705.17 612.12 L 707.46 607.50 L 710.08 603.09 L 713.03 598.89 L 716.30 594.91 L 719.82 591.22 L 723.61 587.81 L 727.68 584.65 L 731.97 581.82 L 736.46 579.33 L 741.16 577.17 L 746.09 575.34 L 751.12 573.90 L 756.31 572.87 L 761.66 572.23 L 767.20 572.00 Z M 639.20 580.00 L 634.22 580.21 L 629.41 580.80 L 624.75 581.75 L 620.24 583.06 L 615.82 584.73 L 611.61 586.71 L 607.59 588.99 L 603.76 591.58 L 598.99 595.47 L 594.67 599.79 L 590.78 604.56 L 588.19 608.39 L 585.91 612.41 L 583.93 616.62 L 582.26 621.04 L 580.95 625.55 L 580.00 630.21 L 579.41 635.02 L 579.20 640.00 L 579.41 644.98 L 580.00 649.79 L 580.95 654.45 L 582.26 658.96 L 583.93 663.38 L 585.91 667.59 L 588.19 671.61 L 590.78 675.44 L 594.67 680.21 L 598.99 684.53 L 603.76 688.42 L 607.59 691.01 L 611.61 693.29 L 615.82 695.27 L 620.24 696.94 L 624.75 698.25 L 629.41 699.20 L 634.22 699.79 L 639.20 700.00 L 644.18 699.79 L 648.99 699.21 L 653.65 698.26 L 658.16 696.94 L 662.58 695.27 L 666.79 693.29 L 670.81 691.01 L 674.64 688.43 L 679.41 684.54 L 683.73 680.22 L 687.62 675.44 L 690.21 671.61 L 692.49 667.60 L 694.47 663.40 L 696.14 658.98 L 697.46 654.47 L 698.41 649.82 L 698.99 645.01 L 699.20 640.03 L 699.19 639.01 L 698.91 634.09 L 698.26 629.35 L 697.25 624.76 L 695.89 620.31 L 693.55 614.55 L 690.68 609.16 L 687.28 604.10 L 683.39 599.41 L 679.07 595.17 L 674.32 591.35 L 669.21 588.03 L 663.77 585.25 L 657.97 583.00 L 653.50 581.71 L 648.89 580.78 L 644.13 580.21 L 639.20 580.00 Z M 767.20 580.00 L 762.22 580.21 L 757.41 580.80 L 752.75 581.75 L 748.24 583.06 L 743.82 584.73 L 739.61 586.71 L 735.59 588.99 L 731.76 591.58 L 726.99 595.47 L 722.67 599.79 L 718.78 604.56 L 716.19 608.39 L 713.91 612.41 L 711.93 616.62 L 710.26 621.04 L 708.95 625.55 L 708.00 630.21 L 707.41 635.02 L 707.20 640.00 L 707.41 644.98 L 708.00 649.79 L 708.95 654.45 L 710.26 658.96 L 711.93 663.38 L 713.91 667.59 L 716.19 671.61 L 718.78 675.44 L 722.67 680.21 L 726.99 684.53 L 731.76 688.42 L 735.59 691.01 L 739.61 693.29 L 743.82 695.27 L 748.24 696.94 L 752.75 698.25 L 757.41 699.20 L 762.22 699.79 L 767.20 700.00 L 772.18 699.79 L 776.99 699.20 L 781.65 698.25 L 786.16 696.94 L 790.58 695.27 L 794.79 693.29 L 798.81 691.01 L 802.64 688.42 L 807.41 684.53 L 811.73 680.21 L 815.62 675.44 L 818.21 671.61 L 820.49 667.59 L 822.47 663.38 L 824.14 658.96 L 825.45 654.45 L 826.40 649.79 L 826.99 644.98 L 827.20 640.00 L 826.99 635.02 L 826.40 630.21 L 825.45 625.55 L 824.14 621.04 L 822.47 616.62 L 820.49 612.41 L 818.21 608.39 L 815.62 604.56 L 811.73 599.79 L 807.41 595.47 L 802.64 591.58 L 798.81 588.99 L 794.79 586.71 L 790.58 584.73 L 786.16 583.06 L 781.65 581.75 L 776.99 580.80 L 772.18 580.21 L 767.20 580.00 Z M 511.20 580.00 L 506.22 580.21 L 501.41 580.80 L 496.75 581.75 L 492.24 583.06 L 487.82 584.73 L 483.61 586.71 L 479.59 588.99 L 475.76 591.58 L 470.99 595.47 L 466.67 599.79 L 462.78 604.56 L 460.19 608.39 L 457.91 612.41 L 455.93 616.62 L 454.26 621.04 L 452.95 625.55 L 452.00 630.21 L 451.41 635.02 L 451.20 640.00 L 451.41 644.98 L 452.00 649.79 L 452.95 654.45 L 454.26 658.96 L 455.93 663.38 L 457.91 667.59 L 460.19 671.61 L 462.78 675.44 L 466.67 680.21 L 470.99 684.53 L 475.76 688.42 L 479.59 691.01 L 483.61 693.29 L 487.82 695.27 L 492.24 696.94 L 496.75 698.25 L 501.41 699.20 L 506.22 699.79 L 511.20 700.00 L 516.18 699.79 L 520.99 699.21 L 525.65 698.26 L 530.16 696.94 L 534.58 695.27 L 538.79 693.29 L 542.81 691.01 L 546.64 688.43 L 551.41 684.54 L 555.73 680.22 L 559.62 675.44 L 562.21 671.61 L 564.49 667.60 L 566.47 663.40 L 568.14 658.98 L 569.46 654.47 L 570.41 649.82 L 570.99 645.01 L 571.20 640.03 L 571.19 639.01 L 570.91 634.09 L 570.26 629.35 L 569.25 624.76 L 567.89 620.31 L 565.55 614.55 L 562.68 609.16 L 559.28 604.10 L 555.39 599.41 L 551.07 595.17 L 546.32 591.35 L 541.21 588.03 L 535.77 585.25 L 529.97 583.00 L 525.50 581.71 L 520.89 580.78 L 516.13 580.21 L 511.20 580.00 Z" fill="#dedaff" fill-rule="nonzero" group-id="1,3,4" id="形状结合" node-id="10" stroke="none" target-height="136" target-width="392" target-x="443.2" target-y="572"></path><path d="M 514.00 783.50 L 514.00 960.00 L 506.00 960.00 L 506.00 783.50 L 507.95 783.87 L 510.00 784.00 L 512.05 783.87 L 514.00 783.50 Z M 770.00 783.50 L 770.00 960.00 L 762.00 960.00 L 762.00 783.50 L 763.95 783.87 L 766.00 784.00 L 768.05 783.87 L 770.00 783.50 Z M 642.00 783.50 L 642.00 960.00 L 634.00 960.00 L 634.00 783.50 L 635.95 783.87 L 638.00 784.00 L 640.05 783.87 L 642.00 783.50 Z M 781.50 764.00 L 958.00 764.00 L 958.00 772.00 L 781.50 772.00 L 781.87 770.05 L 782.00 768.00 L 781.87 765.95 L 781.50 764.00 Z M 750.00 768.00 L 750.13 770.05 L 750.50 772.00 L 653.50 772.00 L 653.87 770.05 L 654.00 768.00 L 653.87 765.95 L 653.50 764.00 L 750.50 764.00 L 750.13 765.95 L 750.00 768.00 Z M 622.00 768.00 L 622.13 770.05 L 622.50 772.00 L 525.50 772.00 L 525.87 770.05 L 526.00 768.00 L 525.87 765.95 L 525.50 764.00 L 622.50 764.00 L 622.13 765.95 L 622.00 768.00 Z M 494.00 768.00 L 494.13 770.05 L 494.50 772.00 L 62.00 772.00 L 62.00 764.00 L 494.50 764.00 L 494.13 765.95 L 494.00 768.00 Z M 514.00 64.00 L 514.00 508.00 L 634.00 508.00 L 634.00 64.00 L 642.00 64.00 L 642.00 508.00 L 762.00 508.00 L 762.00 64.00 L 770.00 64.00 L 770.00 508.00 L 958.00 508.00 L 958.00 516.00 L 770.00 516.00 L 770.00 624.50 L 768.05 624.13 L 766.00 624.00 L 763.95 624.13 L 762.00 624.50 L 762.00 516.00 L 642.00 516.00 L 642.00 636.00 L 750.50 636.00 L 750.13 637.95 L 750.00 640.00 L 750.13 642.05 L 750.50 644.00 L 642.00 644.00 L 642.00 752.50 L 640.05 752.13 L 638.00 752.00 L 635.95 752.13 L 634.00 752.50 L 634.00 644.00 L 514.00 644.00 L 514.00 752.50 L 512.05 752.13 L 510.00 752.00 L 507.95 752.13 L 506.00 752.50 L 506.00 644.00 L 62.00 644.00 L 62.00 636.00 L 506.00 636.00 L 506.00 516.00 L 62.00 516.00 L 62.00 508.00 L 506.00 508.00 L 506.00 64.00 L 514.00 64.00 Z M 770.00 655.50 L 770.00 752.50 L 768.05 752.13 L 766.00 752.00 L 763.95 752.13 L 762.00 752.50 L 762.00 655.50 L 763.95 655.87 L 766.00 656.00 L 768.05 655.87 L 770.00 655.50 Z M 781.50 636.00 L 958.00 636.00 L 958.00 644.00 L 781.50 644.00 L 781.87 642.05 L 782.00 640.00 L 781.87 637.95 L 781.50 636.00 Z M 634.00 516.00 L 514.00 516.00 L 514.00 636.00 L 634.00 636.00 L 634.00 516.00 Z" fill="#f3f3f3" fill-rule="evenodd" group-id="1,3,4" id="形状结合" node-id="11" stroke="none" target-height="896" target-width="896" target-x="62" target-y="64"></path></g><g node-id="37"><g node-id="38"><path d="M 825.60 192.00 L 825.60 575.98 L 551.29 576.00 L 551.29 576.00 L 550.84 575.99 L 546.22 575.61 L 541.79 574.72 L 537.53 573.34 L 533.40 571.45 L 529.50 569.12 L 525.83 566.40 L 522.38 563.25 L 519.13 559.66 L 516.24 555.82 L 513.65 551.66 L 511.37 547.18 L 509.40 542.33 L 507.85 537.38 L 506.70 532.21 L 505.95 526.80 L 505.61 521.12 L 505.60 192.00 L 825.60 192.00 Z" fill="#eeeeff" fill-rule="evenodd" group-id="1,3,5,6" id="形状结合" node-id="14" stroke="none" target-height="384" target-width="319.99997" target-x="505.6" target-y="192"></path><path d="M 785.60 196.00 L 825.60 196.00 L 825.60 576.00 L 785.60 576.00 Z" fill="#beb9ff" fill-rule="evenodd" group-id="1,3,5,6" id="矩形" node-id="15" stroke="none" target-height="380" target-width="40" target-x="785.6" target-y="196"></path><path d="M 505.60 192.00 L 825.60 192.00 L 825.60 232.00 L 505.60 232.00 Z" fill="#beb9ff" fill-rule="evenodd" group-id="1,3,5,6" id="矩形" node-id="16" stroke="none" target-height="40" target-width="319.99997" target-x="505.6" target-y="192"></path><path d="M 785.60 192.00 L 825.60 192.00 L 825.60 232.00 L 785.60 232.00 Z" fill="#160a45" fill-rule="evenodd" group-id="1,3,5,6" id="矩形" node-id="17" stroke="none" target-height="40" target-width="40" target-x="785.6" target-y="192"></path><path d="M 533.60 224.00 L 535.79 223.80 L 537.80 223.25 L 539.66 222.36 L 541.34 221.17 L 542.77 219.74 L 543.96 218.06 L 544.85 216.20 L 545.40 214.19 L 545.60 212.00 L 545.40 209.81 L 544.85 207.80 L 543.96 205.94 L 542.77 204.26 L 541.34 202.83 L 539.66 201.64 L 537.80 200.75 L 535.79 200.20 L 533.60 200.00 L 531.41 200.20 L 529.40 200.75 L 527.54 201.64 L 525.86 202.83 L 524.43 204.26 L 523.24 205.94 L 522.35 207.80 L 521.80 209.81 L 521.60 212.00 L 521.80 214.19 L 522.35 216.20 L 523.24 218.06 L 524.43 219.74 L 525.86 221.17 L 527.54 222.36 L 529.40 223.25 L 531.41 223.80 L 533.60 224.00 Z M 573.60 224.00 L 575.79 223.80 L 577.80 223.25 L 579.66 222.36 L 581.34 221.17 L 582.77 219.74 L 583.96 218.06 L 584.85 216.20 L 585.40 214.19 L 585.60 212.00 L 585.40 209.81 L 584.85 207.80 L 583.96 205.94 L 582.77 204.26 L 581.34 202.83 L 579.66 201.64 L 577.80 200.75 L 575.79 200.20 L 573.60 200.00 L 571.41 200.20 L 569.40 200.75 L 567.54 201.64 L 565.86 202.83 L 564.43 204.26 L 563.24 205.94 L 562.35 207.80 L 561.80 209.81 L 561.60 212.00 L 561.80 214.19 L 562.35 216.20 L 563.24 218.06 L 564.43 219.74 L 565.86 221.17 L 567.54 222.36 L 569.40 223.25 L 571.41 223.80 L 573.60 224.00 Z" fill="#160a45" fill-rule="evenodd" group-id="1,3,5,6" id="形状结合" node-id="18" stroke="none" target-height="24" target-width="64" target-x="521.6" target-y="200"></path><path d="M 625.60 212.00 L 625.40 214.19 L 624.85 216.20 L 623.96 218.06 L 622.77 219.74 L 621.34 221.17 L 619.66 222.36 L 617.80 223.25 L 615.79 223.80 L 613.60 224.00 L 611.41 223.80 L 609.40 223.25 L 607.54 222.36 L 605.86 221.17 L 604.43 219.74 L 603.24 218.06 L 602.35 216.20 L 601.80 214.19 L 601.60 212.00 L 601.80 209.81 L 602.35 207.80 L 603.24 205.94 L 604.43 204.26 L 605.86 202.83 L 607.54 201.64 L 609.40 200.75 L 611.41 200.20 L 613.60 200.00 L 615.79 200.20 L 617.80 200.75 L 619.66 201.64 L 621.34 202.83 L 622.77 204.26 L 623.96 205.94 L 624.85 207.80 L 625.40 209.81 L 625.60 212.00 Z" fill="#ffffff" fill-rule="evenodd" group-id="1,3,5,6" id="椭圆形" node-id="19" stroke="none" target-height="24" target-width="24" target-x="601.6" target-y="200"></path></g><path d="M 697.60 320.00 L 729.60 320.00 L 729.60 576.00 L 697.60 576.00 Z" fill="#beb9ff" fill-rule="evenodd" group-id="1,3,5" id="矩形" node-id="20" stroke="none" target-height="256" target-width="32" target-x="697.6" target-y="320"></path><path d="M 377.60 320.00 L 697.60 320.00 L 697.60 704.00 L 423.30 703.80 L 377.60 703.80 L 377.60 649.14 Z" fill="#806eff" fill-rule="evenodd" group-id="1,3,5,7" id="矩形" node-id="22" stroke="none" target-height="384" target-width="319.99997" target-x="377.6" target-y="320"></path><path d="M 377.60 320.00 L 697.60 320.00 L 697.60 360.00 L 377.60 360.00 Z" fill="#dedaff" fill-rule="evenodd" group-id="1,3,5,7" id="矩形" node-id="23" stroke="none" target-height="40" target-width="319.99997" target-x="377.6" target-y="320"></path><path d="M 569.60 448.00 L 601.60 448.00 L 601.60 704.00 L 569.60 704.00 Z" fill="#6448f4" fill-rule="evenodd" group-id="1,3,5" id="矩形" node-id="24" stroke="none" target-height="256" target-width="32" target-x="569.6" target-y="448"></path><path d="M 249.37 768.33 L 249.37 448.00 L 569.37 448.00 L 569.37 832.00 L 313.37 832.00 L 307.69 831.77 L 302.30 831.16 L 297.16 830.18 L 292.27 828.85 L 287.60 827.15 L 281.90 824.50 L 276.66 821.39 L 271.83 817.82 L 267.39 813.77 L 263.38 809.30 L 259.84 804.46 L 256.78 799.23 L 254.17 793.59 L 252.14 787.76 L 250.66 781.63 L 249.73 775.17 L 249.37 768.33 Z" fill="#eeeeff" fill-opacity="0.8" fill-rule="evenodd" group-id="1,3,5,8,10" id="形状结合" node-id="27" stroke="none" target-height="384" target-width="319.99997" target-x="249.3699" target-y="448"></path><path d="M 249.60 448.00 L 569.60 448.00 L 569.60 488.00 L 249.60 488.00 Z" fill="#a199ff" fill-rule="evenodd" group-id="1,3,5,8" id="矩形" node-id="28" stroke="none" target-height="40" target-width="320" target-x="249.59999" target-y="448"></path><path d="M 313.60 768.00 L 313.60 832.00 L 306.52 831.67 L 299.88 830.76 L 293.64 829.29 L 287.76 827.28 L 282.05 824.68 L 276.79 821.62 L 271.96 818.09 L 267.52 814.08 L 263.51 809.64 L 259.98 804.81 L 256.92 799.55 L 254.32 793.84 L 252.31 787.96 L 250.84 781.72 L 249.93 775.08 L 249.60 768.00 L 313.60 768.00 Z" fill="#dedaff" fill-rule="evenodd" group-id="1,3,5,9" id="椭圆形" node-id="29" stroke="none" target-height="64" target-width="63.999985" target-x="249.59999" target-y="768"></path></g></g></g></svg>