<?xml version="1.0" standalone="no"?><!DOCTYPE svg PUBLIC "-//W3C//DTD SVG 1.1//EN" "http://www.w3.org/Graphics/SVG/1.1/DTD/svg11.dtd"><svg height="1024" node-id="1" sillyvg="true" template-height="1024" template-width="1024" version="1.1" viewBox="0 0 1024 1024" width="1024" xmlns="http://www.w3.org/2000/svg" xmlns:xlink="http://www.w3.org/1999/xlink"><defs node-id="42"></defs><g node-id="44"><g node-id="45"><path d="M 0.00 0.00 L 1024.00 0.00 L 1024.00 1024.00 L 0.00 1024.00 Z" fill="#ffffff" fill-opacity="0" fill-rule="evenodd" group-id="1,2" id="矩形" node-id="6" stroke="none" target-height="1024" target-width="1024" target-x="0" target-y="0"></path></g><g node-id="46"><g node-id="47"><path d="M 757.60 324.00 L 763.25 323.76 L 768.70 323.10 L 773.97 322.02 L 779.09 320.53 L 784.10 318.64 L 788.87 316.40 L 793.42 313.81 L 797.76 310.88 L 801.87 307.62 L 805.68 304.08 L 809.22 300.27 L 812.48 296.16 L 815.41 291.82 L 818.00 287.27 L 820.24 282.50 L 822.13 277.49 L 823.62 272.37 L 824.70 267.10 L 825.36 261.65 L 825.60 256.00 L 825.36 250.35 L 824.70 244.90 L 823.62 239.63 L 822.13 234.51 L 820.24 229.50 L 818.00 224.73 L 815.41 220.18 L 812.48 215.84 L 809.22 211.73 L 805.68 207.92 L 801.87 204.38 L 797.76 201.12 L 793.42 198.19 L 788.87 195.60 L 784.10 193.36 L 779.09 191.47 L 773.97 189.98 L 768.70 188.90 L 763.25 188.24 L 757.60 188.00 L 752.06 188.23 L 746.71 188.87 L 741.53 189.90 L 736.49 191.34 L 731.56 193.17 L 726.86 195.33 L 722.38 197.82 L 718.09 200.65 L 714.02 203.80 L 710.22 207.22 L 706.70 210.91 L 703.43 214.88 L 700.48 219.08 L 697.86 223.49 L 695.57 228.12 L 693.60 232.97 L 691.63 228.12 L 689.34 223.49 L 686.72 219.08 L 683.76 214.88 L 680.50 210.91 L 676.98 207.22 L 673.18 203.80 L 669.11 200.65 L 664.82 197.82 L 660.34 195.33 L 655.64 193.17 L 650.71 191.34 L 645.67 189.90 L 640.49 188.87 L 635.14 188.23 L 629.60 188.00 L 624.06 188.23 L 618.71 188.87 L 613.53 189.90 L 608.49 191.34 L 603.56 193.17 L 598.86 195.33 L 594.37 197.82 L 590.09 200.65 L 586.02 203.80 L 582.22 207.22 L 578.70 210.91 L 575.43 214.88 L 572.48 219.08 L 569.86 223.49 L 567.57 228.12 L 565.60 232.97 L 564.26 239.09 L 563.35 244.50 L 562.79 249.81 L 562.60 255.01 L 562.78 260.26 L 563.35 266.00 L 564.25 271.98 L 565.60 279.02 L 567.57 283.88 L 569.86 288.50 L 572.48 292.91 L 575.43 297.11 L 578.70 301.09 L 582.22 304.78 L 586.01 308.19 L 590.08 311.35 L 594.37 314.18 L 598.86 316.67 L 603.56 318.83 L 608.49 320.66 L 613.52 322.10 L 618.71 323.13 L 624.06 323.77 L 629.60 324.00 L 635.13 323.77 L 640.48 323.13 L 645.66 322.10 L 650.69 320.66 L 655.62 318.84 L 660.32 316.68 L 664.81 314.19 L 669.10 311.36 L 673.17 308.21 L 676.96 304.79 L 680.49 301.10 L 683.75 297.13 L 686.71 292.92 L 689.33 288.51 L 691.63 283.89 L 693.60 279.02 L 695.57 283.88 L 697.86 288.50 L 700.48 292.91 L 703.43 297.11 L 706.70 301.09 L 710.22 304.78 L 714.01 308.19 L 718.08 311.35 L 722.37 314.18 L 726.86 316.67 L 731.56 318.83 L 736.49 320.66 L 741.52 322.09 L 746.71 323.13 L 752.06 323.77 L 757.60 324.00 Z M 629.60 316.00 L 624.62 315.79 L 619.81 315.20 L 615.15 314.25 L 610.64 312.94 L 606.22 311.27 L 602.01 309.29 L 597.99 307.01 L 594.16 304.42 L 589.39 300.53 L 585.07 296.21 L 581.18 291.44 L 578.59 287.61 L 576.31 283.59 L 574.33 279.38 L 572.66 274.96 L 571.35 270.45 L 570.40 265.79 L 569.81 260.98 L 569.60 256.00 L 569.81 251.02 L 570.40 246.21 L 571.35 241.55 L 572.66 237.04 L 574.33 232.62 L 576.31 228.41 L 578.59 224.39 L 581.18 220.56 L 585.07 215.79 L 589.39 211.47 L 594.16 207.58 L 597.99 204.99 L 602.01 202.71 L 606.22 200.73 L 610.64 199.06 L 615.15 197.75 L 619.81 196.80 L 624.62 196.21 L 629.60 196.00 L 634.58 196.21 L 639.39 196.80 L 644.05 197.74 L 648.56 199.06 L 652.98 200.73 L 657.19 202.71 L 661.21 204.99 L 665.04 207.57 L 669.81 211.46 L 674.13 215.78 L 678.02 220.56 L 680.61 224.39 L 682.89 228.40 L 684.87 232.60 L 686.54 237.02 L 687.86 241.53 L 688.81 246.18 L 689.39 250.99 L 689.60 255.97 L 689.59 256.99 L 689.31 261.91 L 688.66 266.65 L 687.65 271.24 L 686.29 275.69 L 683.95 281.45 L 681.08 286.84 L 677.68 291.90 L 673.79 296.59 L 669.47 300.83 L 664.72 304.65 L 659.61 307.97 L 654.17 310.75 L 648.37 313.00 L 643.90 314.29 L 639.29 315.22 L 634.53 315.79 L 629.60 316.00 Z M 757.60 316.00 L 752.62 315.79 L 747.81 315.20 L 743.15 314.25 L 738.64 312.94 L 734.22 311.27 L 730.01 309.29 L 725.99 307.01 L 722.16 304.42 L 717.39 300.53 L 713.07 296.21 L 709.18 291.44 L 706.59 287.61 L 704.31 283.59 L 702.33 279.38 L 700.66 274.96 L 699.35 270.45 L 698.40 265.79 L 697.81 260.98 L 697.60 256.00 L 697.81 251.02 L 698.40 246.21 L 699.35 241.55 L 700.66 237.04 L 702.33 232.62 L 704.31 228.41 L 706.59 224.39 L 709.18 220.56 L 713.07 215.79 L 717.39 211.47 L 722.16 207.58 L 725.99 204.99 L 730.01 202.71 L 734.22 200.73 L 738.64 199.06 L 743.15 197.75 L 747.81 196.80 L 752.62 196.21 L 757.60 196.00 L 762.58 196.21 L 767.39 196.80 L 772.05 197.75 L 776.56 199.06 L 780.98 200.73 L 785.19 202.71 L 789.21 204.99 L 793.04 207.58 L 797.81 211.47 L 802.13 215.79 L 806.02 220.56 L 808.61 224.39 L 810.89 228.41 L 812.87 232.62 L 814.54 237.04 L 815.85 241.55 L 816.80 246.21 L 817.39 251.02 L 817.60 256.00 L 817.39 260.98 L 816.80 265.79 L 815.86 270.45 L 814.54 274.96 L 812.87 279.38 L 810.89 283.59 L 808.61 287.61 L 806.02 291.44 L 802.13 296.21 L 797.81 300.53 L 793.04 304.42 L 789.21 307.01 L 785.19 309.29 L 780.98 311.27 L 776.56 312.94 L 772.05 314.25 L 767.39 315.20 L 762.58 315.79 L 757.60 316.00 Z" fill="#dedaff" fill-rule="nonzero" group-id="1,3,4" id="形状结合" node-id="9" stroke="none" target-height="136" target-width="263.00024" target-x="562.5998" target-y="188"></path><path d="M 757.60 452.00 L 763.25 451.76 L 768.70 451.10 L 773.97 450.02 L 779.09 448.53 L 784.10 446.64 L 788.87 444.40 L 793.42 441.81 L 797.76 438.88 L 801.87 435.62 L 805.68 432.08 L 809.22 428.27 L 812.48 424.16 L 815.41 419.82 L 818.00 415.27 L 820.24 410.50 L 822.13 405.49 L 823.62 400.37 L 824.70 395.10 L 825.36 389.65 L 825.60 384.00 L 825.36 378.35 L 824.70 372.90 L 823.62 367.63 L 822.13 362.51 L 820.24 357.50 L 818.00 352.73 L 815.41 348.18 L 812.48 343.84 L 809.22 339.73 L 805.68 335.92 L 801.87 332.38 L 797.76 329.12 L 793.42 326.19 L 788.87 323.60 L 784.10 321.36 L 779.09 319.47 L 773.97 317.98 L 768.70 316.90 L 763.25 316.24 L 757.60 316.00 L 752.06 316.23 L 746.71 316.87 L 741.53 317.90 L 736.49 319.34 L 731.56 321.17 L 726.86 323.33 L 722.38 325.82 L 718.09 328.65 L 714.02 331.80 L 710.22 335.22 L 706.70 338.91 L 703.43 342.88 L 700.48 347.08 L 697.86 351.49 L 695.57 356.12 L 693.60 360.97 L 690.67 367.37 L 688.61 373.01 L 687.30 378.00 L 686.70 381.83 L 686.52 385.52 L 686.72 389.09 L 687.30 392.57 L 688.64 397.10 L 690.71 401.90 L 693.60 407.02 L 695.57 411.88 L 697.86 416.50 L 700.48 420.91 L 703.43 425.11 L 706.70 429.09 L 710.22 432.78 L 714.01 436.19 L 718.08 439.35 L 722.37 442.18 L 726.86 444.67 L 731.56 446.83 L 736.49 448.66 L 741.52 450.10 L 746.71 451.13 L 752.06 451.77 L 757.60 452.00 Z M 757.60 444.00 L 752.62 443.79 L 747.81 443.20 L 743.15 442.25 L 738.64 440.94 L 734.22 439.27 L 730.01 437.29 L 725.99 435.01 L 722.16 432.42 L 717.39 428.53 L 713.07 424.21 L 709.18 419.44 L 706.59 415.61 L 704.31 411.59 L 702.33 407.38 L 700.66 402.96 L 699.35 398.45 L 698.40 393.79 L 697.81 388.98 L 697.60 384.00 L 697.81 379.02 L 698.40 374.21 L 699.35 369.55 L 700.66 365.04 L 702.33 360.62 L 704.31 356.41 L 706.59 352.39 L 709.18 348.56 L 713.07 343.79 L 717.39 339.47 L 722.16 335.58 L 725.99 332.99 L 730.01 330.71 L 734.22 328.73 L 738.64 327.06 L 743.15 325.75 L 747.81 324.80 L 752.62 324.21 L 757.60 324.00 L 762.58 324.21 L 767.39 324.80 L 772.05 325.75 L 776.56 327.06 L 780.98 328.73 L 785.19 330.71 L 789.21 332.99 L 793.04 335.58 L 797.81 339.47 L 802.13 343.79 L 806.02 348.56 L 808.61 352.39 L 810.89 356.41 L 812.87 360.62 L 814.54 365.04 L 815.85 369.55 L 816.80 374.21 L 817.39 379.02 L 817.60 384.00 L 817.39 388.98 L 816.80 393.79 L 815.86 398.45 L 814.54 402.96 L 812.87 407.38 L 810.89 411.59 L 808.61 415.61 L 806.02 419.44 L 802.13 424.21 L 797.81 428.53 L 793.04 432.42 L 789.21 435.01 L 785.19 437.29 L 780.98 439.27 L 776.56 440.94 L 772.05 442.25 L 767.39 443.20 L 762.58 443.79 L 757.60 444.00 Z" fill="#dedaff" fill-rule="nonzero" group-id="1,3,4" id="形状结合" node-id="10" stroke="none" target-height="136" target-width="139.08466" target-x="686.5154" target-y="316"></path><path d="M 763.60 240.50 L 763.60 64.00 L 755.60 64.00 L 755.60 240.50 L 757.55 240.13 L 759.60 240.00 L 761.65 240.13 L 763.60 240.50 Z M 635.60 240.50 L 635.60 64.00 L 627.60 64.00 L 627.60 240.50 L 629.55 240.13 L 631.60 240.00 L 633.65 240.13 L 635.60 240.50 Z M 775.10 260.00 L 964.40 260.00 L 964.40 252.00 L 775.10 252.00 L 775.47 253.95 L 775.60 256.00 L 775.47 258.05 L 775.10 260.00 Z M 743.60 256.00 L 743.73 253.95 L 744.10 252.00 L 647.10 252.00 L 647.47 253.95 L 647.60 256.00 L 647.47 258.05 L 647.10 260.00 L 744.10 260.00 L 743.73 258.05 L 743.60 256.00 Z M 615.60 256.00 L 615.73 253.95 L 616.10 252.00 L 68.40 252.00 L 68.40 260.00 L 616.10 260.00 L 615.73 258.05 L 615.60 256.00 Z M 635.60 960.00 L 635.60 388.00 L 744.10 388.00 L 743.73 386.05 L 743.60 384.00 L 743.73 381.95 L 744.10 380.00 L 635.60 380.00 L 635.60 271.50 L 633.65 271.87 L 631.60 272.00 L 629.55 271.87 L 627.60 271.50 L 627.60 380.00 L 68.40 380.00 L 68.40 388.00 L 627.60 388.00 L 627.60 960.00 L 635.60 960.00 Z M 763.60 368.50 L 763.60 271.50 L 761.65 271.87 L 759.60 272.00 L 757.55 271.87 L 755.60 271.50 L 755.60 368.50 L 757.55 368.13 L 759.60 368.00 L 761.65 368.13 L 763.60 368.50 Z M 775.10 388.00 L 964.40 388.00 L 964.40 380.00 L 775.10 380.00 L 775.47 381.95 L 775.60 384.00 L 775.47 386.05 L 775.10 388.00 Z M 763.60 960.00 L 763.60 399.50 L 761.65 399.87 L 759.60 400.00 L 757.55 399.87 L 755.60 399.50 L 755.60 960.00 L 763.60 960.00 Z" fill="#f3f3f3" fill-rule="evenodd" group-id="1,3,4" id="形状结合" node-id="11" stroke="none" target-height="896" target-width="896" target-x="68.4" target-y="64"></path></g><g node-id="48"><g node-id="49"><g node-id="52"><path d="M 623.07 452.27 L 823.60 452.27 L 823.60 793.60 L 623.07 793.60 Z" fill="#a199ff" fill-rule="nonzero" group-id="1,3,5,6,9" id="路径" node-id="15" stroke="none" target-height="341.33337" target-width="200.53333" target-x="623.0667" target-y="452.26672"></path><path d="M 648.67 482.13 L 800.13 482.13 L 800.13 770.13 L 648.67 770.13 Z" fill="#ffffff" fill-rule="nonzero" group-id="1,3,5,6,9" id="路径" node-id="16" stroke="none" target-height="288.00003" target-width="151.46667" target-x="648.6667" target-y="482.1334"></path><path d="M 800.13 621.87 L 800.13 770.13 L 655.07 770.13 Z" fill="#eeeeff" fill-opacity="0.79939497" fill-rule="nonzero" group-id="1,3,5,6,9" id="路径" node-id="17" stroke="none" target-height="148.26672" target-width="145.06665" target-x="655.0667" target-y="621.8667"></path></g><path d="M 687.07 452.27 L 712.67 452.27 L 712.67 793.60 L 687.07 793.60 Z" fill="#a199ff" fill-opacity="0.1811291" fill-rule="nonzero" group-id="1,3,5,6,10" id="矩形" node-id="18" stroke="none" target-height="341.33337" target-width="25.599976" target-x="687.0667" target-y="452.26672"></path></g><g node-id="50"><path d="M 209.20 247.47 L 687.07 247.47 L 687.07 793.60 L 209.20 793.60 Z" fill="#eeeeff" fill-rule="nonzero" group-id="1,3,5,7" id="矩形" node-id="20" stroke="none" target-height="546.1334" target-width="477.86664" target-x="209.20001" target-y="247.4667"></path><path d="M 277.47 315.73 L 618.80 315.73 L 618.80 725.33 L 277.47 725.33 Z" fill="#ffffff" fill-rule="nonzero" group-id="1,3,5,7" id="矩形" node-id="21" stroke="none" target-height="409.6" target-width="341.33337" target-x="277.46667" target-y="315.73337"></path><g node-id="54"><path d="M 527.07 667.73 L 527.07 693.33 L 411.87 693.33 L 411.87 667.73 Z" fill="#dedaff" fill-rule="nonzero" group-id="1,3,5,7,11" id="路径" node-id="23" stroke="none" target-height="25.600037" target-width="115.19998" target-x="411.86673" target-y="667.7334"></path><path d="M 527.07 625.07 L 527.07 650.67 L 411.87 650.67 L 411.87 625.07 Z" fill="#dedaff" fill-rule="nonzero" group-id="1,3,5,7,11" id="路径" node-id="24" stroke="none" target-height="25.599976" target-width="115.19998" target-x="411.86673" target-y="625.0668"></path><g node-id="57"><path d="M 373.47 648.53 L 373.22 652.05 L 372.55 655.36 L 371.45 658.50 L 369.96 661.47 L 368.14 664.17 L 365.97 666.64 L 363.51 668.80 L 360.80 670.63 L 357.83 672.12 L 354.69 673.22 L 351.38 673.89 L 347.87 674.13 L 344.35 673.89 L 341.04 673.22 L 337.90 672.12 L 334.93 670.63 L 332.23 668.80 L 329.76 666.64 L 327.60 664.17 L 325.77 661.47 L 324.28 658.50 L 323.18 655.36 L 322.51 652.05 L 322.27 648.53 L 322.51 645.02 L 323.18 641.71 L 324.28 638.57 L 325.77 635.60 L 327.60 632.89 L 329.76 630.43 L 332.23 628.26 L 334.93 626.44 L 337.90 624.95 L 341.04 623.85 L 344.35 623.18 L 347.87 622.93 L 351.38 623.18 L 354.69 623.85 L 357.83 624.95 L 360.80 626.44 L 363.51 628.26 L 365.97 630.43 L 368.14 632.89 L 369.96 635.60 L 371.45 638.57 L 372.55 641.71 L 373.22 645.02 L 373.47 648.53 Z" fill="#806eff" fill-rule="nonzero" group-id="1,3,5,7,11,14" id="椭圆形" node-id="26" stroke="none" target-height="51.200012" target-width="51.200012" target-x="322.26672" target-y="622.9334"></path></g></g><g node-id="55"><g node-id="58"><path d="M 527.07 546.13 L 527.07 571.73 L 411.87 571.73 L 411.87 546.13 Z" fill="#dedaff" fill-rule="nonzero" group-id="1,3,5,7,12,15" id="路径" node-id="29" stroke="none" target-height="25.600037" target-width="115.19998" target-x="411.86673" target-y="546.13336"></path><path d="M 527.07 503.47 L 527.07 529.07 L 411.87 529.07 L 411.87 503.47 Z" fill="#dedaff" fill-rule="nonzero" group-id="1,3,5,7,12,15" id="路径" node-id="30" stroke="none" target-height="25.600006" target-width="115.19998" target-x="411.86673" target-y="503.4667"></path></g><path d="M 373.47 526.93 L 373.22 530.45 L 372.55 533.76 L 371.45 536.90 L 369.96 539.87 L 368.14 542.57 L 365.97 545.04 L 363.51 547.20 L 360.80 549.03 L 357.83 550.52 L 354.69 551.62 L 351.38 552.29 L 347.87 552.53 L 344.35 552.29 L 341.04 551.62 L 337.90 550.52 L 334.93 549.03 L 332.23 547.20 L 329.76 545.04 L 327.60 542.57 L 325.77 539.87 L 324.28 536.90 L 323.18 533.76 L 322.51 530.45 L 322.27 526.93 L 322.51 523.42 L 323.18 520.11 L 324.28 516.97 L 325.77 514.00 L 327.60 511.29 L 329.76 508.83 L 332.23 506.66 L 334.93 504.84 L 337.90 503.35 L 341.04 502.25 L 344.35 501.58 L 347.87 501.33 L 351.38 501.58 L 354.69 502.25 L 357.83 503.35 L 360.80 504.84 L 363.51 506.66 L 365.97 508.83 L 368.14 511.29 L 369.96 514.00 L 371.45 516.97 L 372.55 520.11 L 373.22 523.42 L 373.47 526.93 Z" fill="#806eff" fill-rule="nonzero" group-id="1,3,5,7,12,16" id="椭圆形" node-id="32" stroke="none" target-height="51.19998" target-width="51.200012" target-x="322.26672" target-y="501.3334"></path></g><g node-id="56"><g node-id="60"><path d="M 373.47 407.47 L 373.22 410.98 L 372.55 414.29 L 371.45 417.43 L 369.96 420.40 L 368.14 423.11 L 365.97 425.57 L 363.51 427.74 L 360.80 429.56 L 357.83 431.05 L 354.69 432.15 L 351.38 432.82 L 347.87 433.07 L 344.35 432.82 L 341.04 432.15 L 337.90 431.05 L 334.93 429.56 L 332.23 427.74 L 329.76 425.57 L 327.60 423.11 L 325.77 420.40 L 324.28 417.43 L 323.18 414.29 L 322.51 410.98 L 322.27 407.47 L 322.51 403.95 L 323.18 400.64 L 324.28 397.50 L 325.77 394.53 L 327.60 391.83 L 329.76 389.36 L 332.23 387.20 L 334.93 385.37 L 337.90 383.88 L 341.04 382.78 L 344.35 382.11 L 347.87 381.87 L 351.38 382.11 L 354.69 382.78 L 357.83 383.88 L 360.80 385.37 L 363.51 387.20 L 365.97 389.36 L 368.14 391.83 L 369.96 394.53 L 371.45 397.50 L 372.55 400.64 L 373.22 403.95 L 373.47 407.47 Z" fill="#806eff" fill-rule="nonzero" group-id="1,3,5,7,13,17" id="椭圆形" node-id="35" stroke="none" target-height="51.200012" target-width="51.200012" target-x="322.26672" target-y="381.8667"></path></g><path d="M 565.47 424.53 L 565.47 450.13 L 411.87 450.13 L 411.87 424.53 L 565.47 424.53 Z M 527.07 381.87 L 527.07 407.47 L 411.87 407.47 L 411.87 381.87 L 527.07 381.87 Z" fill="#dedaff" fill-rule="nonzero" group-id="1,3,5,7,13" id="形状结合" node-id="36" stroke="none" target-height="68.26666" target-width="153.6" target-x="411.86673" target-y="381.8667"></path></g></g><g node-id="51"><path d="M 550.53 230.40 L 345.73 230.40 L 345.73 334.93 L 550.53 334.93 L 550.53 230.40 Z M 522.80 224.00 L 522.80 302.93 L 375.60 302.93 L 375.60 224.00 L 522.80 224.00 Z" fill="#160a45" fill-rule="evenodd" group-id="1,3,5,8" id="矩形" node-id="38" stroke="none" target-height="110.93335" target-width="204.80002" target-x="345.73337" target-y="224"></path><path d="M 277.47 230.40 L 618.80 230.40 L 618.80 264.53 L 277.47 264.53 Z" fill="#806eff" fill-rule="nonzero" group-id="1,3,5,8" id="矩形" node-id="39" stroke="none" target-height="34.13333" target-width="341.33334" target-x="277.4667" target-y="230.4"></path><path d="M 277.47 179.20 L 618.80 179.20 L 618.80 230.40 L 277.47 230.40 Z" fill="#beb9ff" fill-rule="nonzero" group-id="1,3,5,8" id="矩形" node-id="40" stroke="none" target-height="51.199997" target-width="341.33334" target-x="277.4667" target-y="179.2"></path></g></g></g></g></svg>